<svg width="53" height="34" viewBox="0 0 53 34" fill="none" xmlns="http://www.w3.org/2000/svg">
<path d="M11.5944 27.3281C11.1371 27.3281 10.7663 27.6989 10.7663 28.1562C10.7663 28.6128 10.3948 28.9843 9.93815 28.9843C9.48154 28.9843 9.11002 28.6128 9.11002 28.1562C9.11002 27.6996 9.48154 27.3281 9.93815 27.3281C10.3955 27.3281 10.7663 26.9573 10.7663 26.5C10.7663 26.0426 10.3955 25.6718 9.93815 25.6718C8.56822 25.6718 7.45377 26.7864 7.45377 28.1562C7.45377 29.526 8.56822 30.6406 9.93815 30.6406C11.3081 30.6406 12.4225 29.526 12.4225 28.1562C12.4225 27.6989 12.0517 27.3281 11.5944 27.3281Z" fill="white"/>
<path d="M44.7176 27.3281C44.2603 27.3281 43.8895 27.6989 43.8895 28.1562C43.8895 28.6128 43.518 28.9843 43.0614 28.9843C42.6048 28.9843 42.2333 28.6128 42.2333 28.1562C42.2333 27.6996 42.6048 27.3281 43.0614 27.3281C43.5187 27.3281 43.8895 26.9573 43.8895 26.5C43.8895 26.0426 43.5187 25.6718 43.0614 25.6718C41.6915 25.6718 40.577 26.7864 40.577 28.1562C40.577 29.526 41.6915 30.6406 43.0614 30.6406C44.4313 30.6406 45.5458 29.526 45.5458 28.1562C45.5458 27.6989 45.175 27.3281 44.7176 27.3281Z" fill="white"/>
<path d="M53 16.5625C53 16.3316 52.9053 16.1229 52.7528 15.9727C52.3987 14.9939 51.6812 14.1721 50.7112 13.687C50.6853 13.6741 50.6589 13.6626 50.6318 13.6525L47.8949 12.6251L46.2277 6.29044C46.2253 6.28133 46.2228 6.27222 46.22 6.26321C45.6907 4.49838 44.0968 3.3125 42.2541 3.3125H36.4375V1.65625C36.4375 0.743035 35.6945 0 34.7812 0H1.65625C0.743035 0 0 0.743035 0 1.65625V24.8438C0 25.757 0.743035 26.5 1.65625 26.5H4.38296C4.30273 26.7685 4.24135 27.045 4.20066 27.3281H0.828125C0.370793 27.3281 0 27.6989 0 28.1562C0 28.6136 0.370793 28.9844 0.828125 28.9844H4.20077C4.60396 31.7899 7.0224 33.9531 9.9375 33.9531C12.8526 33.9531 15.2711 31.7899 15.6742 28.9844H17.3906C17.3906 30.3542 18.5051 31.4688 19.875 31.4688H24.8438C26.2137 31.4688 27.3281 30.3542 27.3281 28.9844H37.3258C37.729 31.7899 40.1474 33.9531 43.0625 33.9531C45.9776 33.9531 48.3961 31.7899 48.7992 28.9844H52.1719C52.6292 28.9844 53 28.6136 53 28.1562C53 27.6989 52.6292 27.3281 52.1719 27.3281H48.7992C48.7586 27.045 48.6972 26.7685 48.6169 26.5H51.3438C52.257 26.5 53 25.757 53 24.8438V17.3906C53 17.196 52.9864 17.004 52.9604 16.8153C52.9859 16.7356 53 16.6507 53 16.5625ZM51.3438 21.5312H50.5156V20.7031H51.3438V21.5312ZM50.7122 15.7344H36.4375V14.0781H47.0529L50.0063 15.1868C50.2784 15.3283 50.5154 15.515 50.7122 15.7344ZM42.2541 4.96875C43.3553 4.96875 44.3085 5.67462 44.6299 6.72665L46.1288 12.4219H36.4375V4.96875H42.2541ZM4.96885 24.8438H1.65625V20.7031H27.3285C27.7859 20.7031 28.1567 20.3323 28.1567 19.875C28.1567 19.4177 27.7859 19.0469 27.3285 19.0469H1.65625V1.65625H34.7812V24.8438H24.8438H19.875H14.9065C14.838 24.8438 14.7719 24.853 14.7082 24.8686C13.6615 23.3542 11.9138 22.3594 9.9375 22.3594C7.96118 22.3594 6.21363 23.3542 5.16678 24.8686C5.10322 24.853 5.03717 24.8438 4.96885 24.8438ZM9.9375 32.2969C7.65436 32.2969 5.79688 30.4394 5.79688 28.1562C5.79688 25.8731 7.65436 24.0156 9.9375 24.0156C12.2206 24.0156 14.0781 25.8731 14.0781 28.1562C14.0781 30.4394 12.2206 32.2969 9.9375 32.2969ZM15.6742 27.3281C15.6336 27.045 15.5722 26.7685 15.4919 26.5H17.5331C17.4411 26.7592 17.3906 27.0379 17.3906 27.3281H15.6742ZM25.6719 28.9844C25.6719 29.441 25.3004 29.8125 24.8438 29.8125H19.875C19.4184 29.8125 19.0469 29.441 19.0469 28.9844V28.1582C19.0469 28.1575 19.047 28.1569 19.047 28.1562C19.047 28.1556 19.0469 28.1549 19.0469 28.1543V27.3281C19.0469 26.8715 19.4184 26.5 19.875 26.5H24.8438C25.3004 26.5 25.6719 26.8715 25.6719 27.3281V28.9844ZM27.1857 26.5H35.6094H37.508C37.4277 26.7685 37.3663 27.045 37.3257 27.3281H27.3281C27.3281 27.0379 27.2776 26.7592 27.1857 26.5ZM43.0625 32.2969C40.7794 32.2969 38.9219 30.4394 38.9219 28.1562C38.9219 25.8731 40.7794 24.0156 43.0625 24.0156C45.3456 24.0156 47.2031 25.8731 47.2031 28.1562C47.2031 30.4394 45.3456 32.2969 43.0625 32.2969ZM48.0312 24.8438C47.9629 24.8438 47.8968 24.853 47.8332 24.8686C46.7864 23.3542 45.0388 22.3594 43.0625 22.3594C41.0862 22.3594 39.3386 23.3542 38.2918 24.8686C38.2282 24.853 38.1622 24.8438 38.0939 24.8438H36.4376V17.3906H51.3439V19.0469H50.5157C49.6025 19.0469 48.8595 19.7899 48.8595 20.7031V21.5312C48.8595 22.4445 49.6025 23.1875 50.5157 23.1875H51.3439V24.8438H48.0312Z" fill="white"/>
<path d="M20.7017 27.3283C20.4833 27.3283 20.27 27.4172 20.1158 27.5705C19.9616 27.7247 19.8736 27.939 19.8736 28.1564C19.8736 28.3747 19.9616 28.5881 20.1158 28.7423C20.27 28.8964 20.4833 28.9845 20.7017 28.9845C20.9201 28.9845 21.1334 28.8964 21.2876 28.7423C21.4418 28.5881 21.5298 28.3737 21.5298 28.1564C21.5298 27.9389 21.4418 27.7247 21.2876 27.5705C21.1334 27.4172 20.9201 27.3283 20.7017 27.3283Z" fill="white"/>
<path d="M30.6413 20.7032H32.2971C32.7545 20.7032 33.1253 20.3325 33.1253 19.8751C33.1253 19.4178 32.7545 19.047 32.2971 19.047H30.6413C30.184 19.047 29.8132 19.4178 29.8132 19.8751C29.8132 20.3325 30.1839 20.7032 30.6413 20.7032Z" fill="white"/>
</svg>
