<svg width="42" height="42" viewBox="0 0 42 42" fill="none" xmlns="http://www.w3.org/2000/svg">
<path d="M41.8488 9.93489C41.7045 9.39829 41.3525 8.94083 40.8708 8.66349C40.3888 8.38479 39.8157 8.3094 39.2781 8.45369C38.7411 8.59833 38.2837 8.95004 38.0063 9.43172L37.657 10.0396C37.3251 9.84892 36.9011 9.96116 36.707 10.2914L34.9324 13.3162L34.3245 12.9669C34.1635 12.8737 33.9718 12.8485 33.7923 12.8969C33.6126 12.9457 33.4597 13.0637 33.3673 13.2254C33.178 13.5594 33.2933 13.9838 33.6259 14.1755L34.2338 14.5248L28.2953 24.8157L26.8281 28.7353L26.1295 30.0415C25.7205 30.7531 25.7642 31.6377 26.2414 32.3053L24.6695 34.2333L24.2294 33.1298C24.0309 32.6379 23.5714 32.3008 23.0429 32.2596C22.5142 32.2179 22.0076 32.4792 21.735 32.934L21.4836 33.3601L21.2462 30.5655C21.1916 29.9044 20.6796 29.3729 20.0212 29.2931C19.3625 29.2136 18.7389 29.6083 18.5284 30.2373L16.8098 35.3932C16.6897 35.7579 16.8862 36.1508 17.2499 36.2737C17.3181 36.3054 17.3914 36.3245 17.4665 36.3293C17.7667 36.3303 18.0341 36.1389 18.1303 35.8544L19.8418 30.6985L20.0864 33.5347C20.1368 34.1399 20.5718 34.643 21.1633 34.7802C21.7548 34.9173 22.3668 34.6567 22.6783 34.1358L22.9369 33.7094L23.3701 34.8064C23.554 35.2687 23.9698 35.5986 24.4621 35.6719C24.9543 35.7452 25.4483 35.5511 25.7594 35.1626L27.3873 33.1018C27.5674 33.1489 27.7529 33.1724 27.9392 33.1717C28.688 33.1775 29.3832 32.7832 29.7626 32.1374L30.4612 30.9708L33.123 27.7362L39.1242 17.3194L39.7321 17.6687C39.8942 17.7615 40.0122 17.9146 40.0603 18.0951C40.1087 18.2742 40.0835 18.4652 39.9907 18.6259L37.1962 23.4676C37.0907 23.6265 37.0549 23.8217 37.0972 24.0079C37.1395 24.1938 37.2558 24.3545 37.4196 24.4524C37.5806 24.5459 37.7723 24.5711 37.9518 24.5227C38.1315 24.4739 38.2844 24.3559 38.3768 24.1942L41.1714 19.3525C41.4501 18.8705 41.5255 18.2974 41.3808 17.7598C41.2362 17.2228 40.8845 16.7654 40.4028 16.488L39.7949 16.1387L41.5415 13.1136C41.7322 12.7816 41.6199 12.3579 41.2901 12.1635L41.6394 11.5556C41.9256 11.0661 42.0013 10.4814 41.8488 9.93489ZM39.215 10.1304C39.3074 9.96866 39.4609 9.85029 39.6414 9.80219C39.8208 9.75784 40.0105 9.78274 40.1722 9.87212C40.3342 9.96457 40.4523 10.1181 40.5007 10.2982C40.545 10.4776 40.5201 10.6673 40.4308 10.829L40.0814 11.4369L38.8657 10.7383L39.215 10.1304ZM29.6926 29.6366L29.3433 29.434L28.3093 28.8329L29.3013 26.1782L31.502 27.4496L29.6926 29.6366ZM27.5967 31.6554C27.3016 31.4497 27.2109 31.054 27.3873 30.7402L27.7366 30.1326L28.952 30.8312L28.6027 31.432C28.5048 31.6019 28.3404 31.7226 28.149 31.7653C27.9576 31.8076 27.7574 31.768 27.5967 31.6554ZM32.2985 26.3041L29.8813 24.9068L35.4704 15.2235L37.8876 16.6207L32.2985 26.3041ZM38.5863 15.4121L36.169 14.0148L37.5663 11.5976L39.9835 12.9948L38.5863 15.4121Z" fill="white"/>
<path d="M11.0248 31.3063L8.55196 33.7727L7.07077 32.2915C6.7982 32.0207 6.35814 32.0207 6.08558 32.2915C5.95322 32.4229 5.87885 32.6013 5.87885 32.7875C5.87885 32.9738 5.95322 33.1526 6.08558 33.2835L7.56677 34.7647C7.82876 35.0247 8.18286 35.1703 8.55196 35.17C8.92311 35.1721 9.28028 35.0264 9.54397 34.7647L12.01 32.2915C12.2474 32.0142 12.2314 31.6011 11.9735 31.3432C11.7153 31.085 11.3022 31.0689 11.0248 31.3063Z" fill="white"/>
<path d="M2.79546 33.1853C2.79546 36.4653 5.45424 39.1237 8.73388 39.1237C12.0135 39.1237 14.6723 36.4653 14.6723 33.1853C14.6723 32.7995 14.3595 32.4867 13.9737 32.4867C13.5878 32.4867 13.275 32.7995 13.275 33.1853C13.275 35.6933 11.2419 37.7264 8.73388 37.7264C6.22588 37.7264 4.19274 35.6933 4.19274 33.1853C4.19274 30.6773 6.22588 28.6442 8.73388 28.6442C9.71702 28.6414 10.6739 28.9604 11.4585 29.5526C11.7672 29.7842 12.2052 29.7214 12.4365 29.4127C12.6682 29.104 12.6057 28.6663 12.297 28.4347C10.4975 27.0852 8.08983 26.8682 6.07817 27.8739C4.06618 28.8799 2.79546 30.9362 2.79546 33.1853Z" fill="white"/>
<path d="M25.1521 5.58917C25.538 5.58917 25.8508 5.27669 25.8508 4.89053C25.8508 4.50471 25.538 4.19189 25.1521 4.19189H6.98756C6.60174 4.19189 6.28893 4.50471 6.28893 4.89053V7.68508C6.28893 8.07124 6.60174 8.38372 6.98756 8.38372H25.1521C25.538 8.38372 25.8508 8.07124 25.8508 7.68508C25.8508 7.29926 25.538 6.98644 25.1521 6.98644H7.6862V5.58917H25.1521Z" fill="white"/>
<path d="M9.08328 9.78107C8.69746 9.78107 8.38464 10.0939 8.38464 10.4797C8.38464 10.8659 8.69746 11.1783 9.08328 11.1783H23.056C23.4418 11.1783 23.7547 10.8659 23.7547 10.4797C23.7547 10.0939 23.4418 9.78107 23.056 9.78107H9.08328Z" fill="white"/>
<path d="M27.247 14.6714H11.877C11.4912 14.6714 11.1784 14.9842 11.1784 15.37C11.1784 15.7562 11.4912 16.0687 11.877 16.0687H27.247C27.6328 16.0687 27.9457 15.7562 27.9457 15.37C27.9457 14.9842 27.6328 14.6714 27.247 14.6714Z" fill="white"/>
<path d="M20.2595 19.5619C20.2595 19.1761 19.9466 18.8633 19.5608 18.8633H5.58808C5.20226 18.8633 4.88944 19.1761 4.88944 19.5619C4.88944 19.9481 5.20226 20.2606 5.58808 20.2606H19.5608C19.9466 20.2606 20.2595 19.9481 20.2595 19.5619Z" fill="white"/>
<path d="M27.2478 18.8633H22.3574C21.9716 18.8633 21.6587 19.1761 21.6587 19.5619C21.6587 19.9481 21.9716 20.2606 22.3574 20.2606H27.2478C27.6337 20.2606 27.9465 19.9481 27.9465 19.5619C27.9465 19.1761 27.6337 18.8633 27.2478 18.8633Z" fill="white"/>
<path d="M12.5745 23.7536C12.9603 23.7536 13.2731 23.4411 13.2731 23.055C13.2731 22.6691 12.9603 22.3563 12.5745 22.3563H5.58808C5.20226 22.3563 4.88944 22.6691 4.88944 23.055C4.88944 23.4411 5.20226 23.7536 5.58808 23.7536H12.5745Z" fill="white"/>
<path d="M15.3687 23.7536H20.2592C20.645 23.7536 20.9578 23.4411 20.9578 23.055C20.9578 22.6691 20.645 22.3563 20.2592 22.3563H15.3687C14.9829 22.3563 14.6701 22.6691 14.6701 23.055C14.6701 23.4411 14.9829 23.7536 15.3687 23.7536Z" fill="white"/>
<path d="M31.4387 32.1373C31.0529 32.1373 30.74 32.4501 30.74 32.836V39.8223C30.74 40.2085 30.4272 40.521 30.0414 40.521H2.09591C1.71009 40.521 1.39727 40.2085 1.39727 39.8223V2.09591C1.39727 1.71009 1.71009 1.39727 2.09591 1.39727H30.0414C30.4272 1.39727 30.74 1.71009 30.74 2.09591V15.2165C30.74 15.6023 31.0529 15.9152 31.4387 15.9152C31.8245 15.9152 32.1373 15.6023 32.1373 15.2165V2.09591C32.1373 0.938453 31.1989 0 30.0414 0H2.09591C0.938453 0 0 0.938453 0 2.09591V39.8223C0 40.9801 0.938453 41.9182 2.09591 41.9182H30.0414C31.1989 41.9182 32.1373 40.9801 32.1373 39.8223V32.836C32.1373 32.4501 31.8245 32.1373 31.4387 32.1373Z" fill="white"/>
</svg>
