<svg width="49" height="49" viewBox="0 0 49 49" fill="none" xmlns="http://www.w3.org/2000/svg">
<path d="M31.7425 8.90403C31.7425 8.26364 32.2638 7.74271 32.9038 7.74271C33.5442 7.74271 34.0651 8.26364 34.0651 8.90403V9.26316C34.0651 9.57353 33.9445 9.86462 33.7253 10.0846L33.3113 10.4986C32.7987 11.0112 32.5167 11.6917 32.5167 12.4156V13.1622H34.0651V12.4156C34.0651 12.1052 34.1861 11.8141 34.405 11.5941L34.8193 11.1802C35.3319 10.6676 35.6135 9.9871 35.6135 9.26316V8.90403C35.6135 7.40966 34.3982 6.19427 32.9038 6.19427C31.4098 6.19427 30.194 7.40966 30.194 8.90403V10.0654H31.7425V8.90403Z" fill="white"/>
<path d="M32.5172 14.7105H34.0656V16.2589H32.5172V14.7105Z" fill="white"/>
<path d="M47.7025 11.0019L44.1301 8.22372V3.87142C44.1301 3.44387 43.7834 3.09721 43.3559 3.09721H37.5387L33.7667 0.162916C33.504 -0.0416004 33.1388 -0.0548315 32.8624 0.130405L28.4115 3.09721H23.2264C22.7992 3.09721 22.4522 3.44387 22.4522 3.87142V8.14509L18.8714 11.0094C18.6881 11.1557 18.5811 11.378 18.5811 11.6135V15.4846H3.87106C2.59066 15.4846 1.54842 16.5265 1.54842 17.8072V40.2594H0.774212C0.347035 40.2594 0 40.6061 0 41.0336V44.1305C0 46.2648 1.73669 48.0015 3.87106 48.0015H37.9364C40.0712 48.0015 41.8075 46.2648 41.8075 44.1305V41.0336C41.8075 40.6061 41.4608 40.2594 41.0333 40.2594H40.259V26.3236H47.227C47.6545 26.3236 48.0012 25.9765 48.0012 25.5494V11.6135C48.0012 11.3743 47.8904 11.1489 47.7025 11.0019ZM31.5601 18.5815L20.1295 24.2966V12.866L31.5601 18.5815ZM19.3553 26.3236H35.6138V37.1626H6.1937V20.1299H18.5811V25.5494C18.5811 25.9765 18.9281 26.3236 19.3553 26.3236ZM22.6351 24.7752L33.2911 19.4468L43.9475 24.7752H22.6351ZM35.0225 18.5815L46.4527 12.866V24.2966L35.0225 18.5815ZM45.7817 11.4703L44.1301 12.2963V10.1857L45.7817 11.4703ZM33.2564 1.72835L35.0161 3.09721H31.2025L33.2564 1.72835ZM42.5817 4.64564V13.0705L33.2911 17.7158L24.0006 13.0705V4.64564H42.5817ZM22.4522 12.2963L20.7839 11.4623L22.4522 10.1267V12.2963ZM40.259 44.1305C40.259 45.4109 39.2172 46.4531 37.9364 46.4531H3.87106C2.59066 46.4531 1.54842 45.4109 1.54842 44.1305V41.8078H10.839V42.582C10.839 43.8624 11.8812 44.9047 13.1616 44.9047H28.6459C29.9266 44.9047 30.9685 43.8624 30.9685 42.582V41.8078H40.259V44.1305ZM12.3874 41.8078H29.4201V42.582C29.4201 43.0085 29.0727 43.3563 28.6459 43.3563H13.1616C12.7352 43.3563 12.3874 43.0085 12.3874 42.582V41.8078ZM38.7106 40.2594H3.09685V17.8072C3.09685 17.3804 3.44464 17.033 3.87106 17.033H18.5811V18.5815H5.41949C4.99231 18.5815 4.64527 18.9281 4.64527 19.3557V37.9368C4.64527 38.3639 4.99231 38.711 5.41949 38.711H36.388C36.8155 38.711 37.1622 38.3639 37.1622 37.9368V26.3236H38.7106V40.2594Z" fill="white"/>
</svg>
