<svg width="49" height="47" viewBox="0 0 49 47" fill="none" xmlns="http://www.w3.org/2000/svg">
<path d="M47.9466 25.2758C47.5153 20.9373 45.577 16.8473 42.4888 13.7589C39.8496 11.1198 36.6193 9.4239 33.2203 8.6698V6.28582C34.6086 5.94044 35.6405 4.6838 35.6405 3.19015C35.6405 1.43106 34.2094 0 32.4503 0H25.6947C23.9356 0 22.5046 1.43106 22.5046 3.19015C22.5046 4.68371 23.5365 5.94034 24.9247 6.28582V8.67646C21.5361 9.43375 18.3164 11.1273 15.6848 13.759C15.1088 14.3349 14.5778 14.9391 14.0917 15.567C14.0681 15.5652 14.0445 15.5634 14.0205 15.5634H7.33425C6.81613 15.5634 6.39597 15.9835 6.39597 16.5017C6.39597 17.0199 6.81613 17.44 7.33425 17.44H12.8149C12.127 18.5917 11.5723 19.8013 11.1501 21.0464H0.93828C0.420162 21.0464 0 21.4664 0 21.9847C0 22.5029 0.420162 22.9229 0.93828 22.9229H10.6198C10.3494 24.1099 10.1942 25.318 10.1542 26.5294H6.00499C5.48687 26.5294 5.06671 26.9495 5.06671 27.4677C5.06671 27.9859 5.48687 28.406 6.00499 28.406H10.1841C10.2633 29.6205 10.4585 30.8286 10.77 32.0124H4.6914C4.17328 32.0124 3.75312 32.4325 3.75312 32.9507C3.75312 33.4689 4.17328 33.889 4.6914 33.889H11.3688C12.2892 36.3239 13.7277 38.6061 15.6848 40.5632C18.776 43.6544 22.8703 45.5931 27.2132 46.0222C27.833 46.0833 28.4533 46.1136 29.0728 46.1136C32.7341 46.1136 36.349 45.054 39.4162 43.0566C39.8504 42.7738 39.9733 42.1926 39.6905 41.7583C39.4077 41.3241 38.8264 41.2013 38.3922 41.4841C31.6781 45.8562 22.6863 44.9109 17.0117 39.2362C10.3535 32.578 10.3535 21.7444 17.0117 15.086C23.6698 8.42791 34.5035 8.42791 41.1618 15.086C46.8289 20.7533 47.7794 29.7374 43.4217 36.4481C43.1395 36.8828 43.2631 37.4639 43.6976 37.7461C44.1324 38.0283 44.7134 37.9047 44.9955 37.4701C47.3237 33.8845 48.3718 29.5538 47.9466 25.2758ZM24.3811 3.19025C24.3811 2.46589 24.9704 1.87665 25.6947 1.87665H32.4503C33.1747 1.87665 33.7639 2.46589 33.7639 3.19025C33.7639 3.9146 33.1747 4.50384 32.4503 4.50384H32.282H25.8629H25.6947C24.9704 4.50384 24.3811 3.9145 24.3811 3.19025ZM26.8012 8.35388V6.3804H31.3437V8.3505C29.8353 8.1711 28.3093 8.17223 26.8012 8.35388Z" fill="#767B87"/>
<path d="M41.8269 38.9609C41.5792 38.9609 41.3381 39.0613 41.1637 39.2358C40.9882 39.4104 40.8887 39.6524 40.8887 39.8992C40.8887 40.146 40.9882 40.388 41.1637 40.5626C41.3381 40.738 41.5793 40.8375 41.8269 40.8375C42.0737 40.8375 42.3148 40.738 42.4903 40.5626C42.6648 40.388 42.7652 40.146 42.7652 39.8992C42.7652 39.6524 42.6649 39.4104 42.4903 39.2358C42.3148 39.0613 42.0736 38.9609 41.8269 38.9609Z" fill="#767B87"/>
<path d="M29.0886 12.6055C21.0628 12.6055 14.5332 19.135 14.5332 27.1609C14.5332 35.1869 21.0628 41.7164 29.0886 41.7164C37.1145 41.7164 43.6441 35.1869 43.6441 27.1609C43.6441 19.135 37.1145 12.6055 29.0886 12.6055ZM29.0886 39.8398C22.0974 39.8398 16.4098 34.152 16.4098 27.1609C16.4098 20.1698 22.0974 14.482 29.0886 14.482C36.0799 14.482 41.7675 20.1698 41.7675 27.1609C41.7675 34.152 36.0799 39.8398 29.0886 39.8398Z" fill="#767B87"/>
<path d="M35.0219 19.8988L30.3746 24.546C29.986 24.3539 29.5489 24.2453 29.0868 24.2453C28.6246 24.2453 28.1875 24.3539 27.7989 24.546L25.719 22.4661C25.3525 22.0997 24.7586 22.0997 24.392 22.4661C24.0256 22.8325 24.0256 23.4267 24.392 23.7931L26.4719 25.8729C26.2796 26.2616 26.1712 26.6987 26.1712 27.1608C26.1712 28.7685 27.479 30.0764 29.0868 30.0764C30.6945 30.0764 32.0024 28.7685 32.0024 27.1608C32.0024 26.6987 31.8938 26.2616 31.7017 25.8729L36.2125 21.3621L36.3489 21.2257C36.7153 20.8593 36.7153 20.2652 36.3489 19.8988C35.9825 19.5324 35.3885 19.5324 35.0219 19.8988ZM29.0868 28.2C28.5139 28.2 28.0477 27.7338 28.0477 27.1609C28.0477 26.588 28.5139 26.1219 29.0868 26.1219C29.6597 26.1219 30.1258 26.588 30.1258 27.1609C30.1258 27.7338 29.6597 28.2 29.0868 28.2Z" fill="#767B87"/>
<path d="M39.1201 26.2344H38.2508C37.7327 26.2344 37.3125 26.6544 37.3125 27.1726C37.3125 27.6908 37.7327 28.1109 38.2508 28.1109H39.1201C39.6382 28.1109 40.0583 27.6908 40.0583 27.1726C40.0583 26.6544 39.6382 26.2344 39.1201 26.2344Z" fill="#767B87"/>
<path d="M19.9247 26.2109H19.0555C18.5373 26.2109 18.1172 26.631 18.1172 27.1492C18.1172 27.6674 18.5373 28.0875 19.0555 28.0875H19.9247C20.4428 28.0875 20.8629 27.6674 20.8629 27.1492C20.8629 26.631 20.4428 26.2109 19.9247 26.2109Z" fill="#767B87"/>
<path d="M29.1004 18.9362C29.6185 18.9362 30.0386 18.5161 30.0386 17.9979V17.1287C30.0386 16.6105 29.6185 16.1904 29.1004 16.1904C28.5823 16.1904 28.1621 16.6105 28.1621 17.1287V17.9979C28.1621 18.5161 28.5823 18.9362 29.1004 18.9362Z" fill="#767B87"/>
<path d="M29.0769 35.3848C28.5588 35.3848 28.1387 35.8048 28.1387 36.323V37.1922C28.1387 37.7104 28.5588 38.1305 29.0769 38.1305C29.595 38.1305 30.0152 37.7104 30.0152 37.1922V36.323C30.0152 35.8048 29.595 35.3848 29.0769 35.3848Z" fill="#767B87"/>
<path d="M6.97656 30.3184C6.71973 30.3184 6.46777 30.4229 6.28613 30.6045C6.10449 30.7861 6 31.0381 6 31.2949C6 31.5527 6.10439 31.8037 6.28613 31.9854C6.46787 32.167 6.71973 32.2715 6.97656 32.2715C7.2334 32.2715 7.48535 32.167 7.66689 31.9854C7.84853 31.8037 7.95312 31.5518 7.95312 31.2949C7.95312 31.0381 7.84863 30.7861 7.66689 30.6045C7.48535 30.4229 7.2334 30.3184 6.97656 30.3184Z" fill="#767B87"/>
</svg>
