<svg width="17" height="11" viewBox="0 0 17 11" fill="none" xmlns="http://www.w3.org/2000/svg">
<path d="M10.6076 5.5814L16.0017 8.99145V2.02734L10.6076 5.5814Z" fill="#838383"/>
<path d="M0 2.02734V8.99145L5.39408 5.5814L0 2.02734Z" fill="#838383"/>
<path d="M14.9995 0H0.999312C0.500304 0 0.104298 0.372006 0.0292969 0.851013L7.99942 6.10209L15.9695 0.851013C15.8945 0.372006 15.4985 0 14.9995 0Z" fill="#838383"/>
<path d="M9.6894 6.18581L8.27438 7.11783C8.19038 7.17283 8.09537 7.19983 7.99937 7.19983C7.90337 7.19983 7.80837 7.17283 7.72437 7.11783L6.30935 6.18481L0.03125 10.1559C0.108251 10.6309 0.502257 10.9999 0.999265 10.9999H14.9995C15.4965 10.9999 15.8905 10.6309 15.9675 10.1559L9.6894 6.18581Z" fill="#838383"/>
</svg>
