<svg width="40" height="45" viewBox="0 0 40 45" fill="none" xmlns="http://www.w3.org/2000/svg">
<path d="M31.4743 31.3916L27.3715 30.0242L25.8986 27.0784C27.2256 25.7278 28.1469 23.9408 28.4575 22.0769L28.6412 20.9759H30.2122C31.6401 20.9759 32.8018 19.8142 32.8018 18.3863V12.9481C32.8018 5.8085 26.9933 0 19.8537 0C12.6958 0 6.90564 5.79184 6.90564 12.9481V18.3863C6.90564 19.5115 7.62736 20.4711 8.63205 20.8274V21.8391C8.63205 23.267 9.79375 24.4287 11.2217 24.4287H11.9797C12.3539 25.2416 12.8383 25.9945 13.4277 26.6708C13.5499 26.8113 13.6774 26.9475 13.808 27.08L12.3359 30.0242L8.23299 31.3916C3.46249 32.9824 0 38.0044 0 43.3329C0 43.8096 0.386457 44.1961 0.863205 44.1961H38.8442C39.3209 44.1961 39.7074 43.8096 39.7074 43.3329C39.7074 38.0044 36.245 32.9824 31.4743 31.3916ZM31.0754 18.3863C31.0754 18.8622 30.6881 19.2495 30.2122 19.2495H28.8947C29.1142 17.5498 29.2604 15.7411 29.3192 13.9597C29.3209 13.9095 29.3223 13.8607 29.3238 13.8113H31.0754V18.3863ZM9.49525 19.2495C9.01928 19.2495 8.63205 18.8622 8.63205 18.3863V13.8113H10.3842C10.387 13.9013 10.39 13.9918 10.3934 14.0828C10.3935 14.0859 10.3937 14.089 10.3938 14.0921C10.3938 14.0923 10.3938 14.0926 10.3938 14.0929C10.4542 15.8255 10.5985 17.5872 10.8129 19.2494H9.49525V19.2495ZM11.2217 22.7023C10.7457 22.7023 10.3585 22.3151 10.3585 21.8391V20.9759H11.0661L11.2498 22.0772C11.2848 22.2866 11.3279 22.4951 11.3777 22.7023H11.2217ZM10.3599 12.0849H8.66485C9.10206 6.29958 13.9301 1.72641 19.8537 1.72641C25.7509 1.72641 30.6003 6.29898 31.0425 12.0849H29.3476C29.2854 7.31765 25.4033 3.45282 20.6264 3.45282H19.0812C14.3043 3.45282 10.422 7.31765 10.3599 12.0849ZM19.0811 5.17923H20.6263C24.4942 5.17923 27.6248 8.34296 27.6225 12.2066C27.6225 12.4782 27.6204 12.7147 27.6158 12.9299C27.6158 12.9327 27.6157 12.9356 27.6157 12.9384L26.536 12.7841C23.6029 12.3653 20.8334 10.9806 18.7377 8.88488C18.5757 8.72303 18.3562 8.63205 18.1273 8.63205C15.8091 8.63205 13.5899 9.68826 12.123 11.4727C12.4845 7.9578 15.4559 5.17923 19.0811 5.17923ZM13.1673 22.7023C12.7352 21.2648 12.2408 17.0351 12.1315 14.3246L13.2933 12.7755C14.3603 11.3533 16.0203 10.4696 17.7862 10.3682C20.1096 12.5794 23.1155 14.0396 26.2919 14.4931L27.5627 14.6747C27.4778 16.4775 27.3042 18.2866 27.0555 19.9505C27.0554 19.951 27.0553 19.9516 27.0553 19.9522C26.9762 20.4871 26.9139 20.8314 26.7547 21.7929C26.2975 24.5349 24.2516 27.0144 21.5507 27.6897C20.4391 27.9672 19.2681 27.9671 18.1572 27.6897C16.4707 27.2681 14.9244 26.1012 13.9264 24.4287H15.6862C16.0425 25.4334 17.0019 26.1551 18.1273 26.1551H19.8537C21.2845 26.1551 22.4433 24.9963 22.4433 23.5655C22.4433 22.1376 21.2816 20.9759 19.8537 20.9759H18.1273C16.9769 20.9759 16.0316 21.7189 15.6847 22.7023H13.1673ZM18.0547 29.4367C18.6468 29.5614 19.2504 29.6252 19.8537 29.6252C20.326 29.6252 20.7983 29.5856 21.2653 29.509L19.74 31.1221L18.0547 29.4367ZM18.5533 32.377L15.8154 35.2724C15.0616 33.8296 14.414 32.3281 13.8827 30.7909L14.9109 28.7345L18.5533 32.377ZM24.6502 28.4421L25.8245 30.7908C25.2924 32.3306 24.6446 33.8326 23.8916 35.2737L20.9612 32.3432L24.6502 28.4421ZM17.2641 23.5655C17.2641 23.0889 17.6506 22.7023 18.1273 22.7023H19.8537C20.3297 22.7023 20.7169 23.0895 20.7169 23.5655C20.7169 24.0421 20.3303 24.4287 19.8537 24.4287H18.1273C17.6513 24.4287 17.2641 24.0415 17.2641 23.5655ZM1.76094 42.4697C2.10303 38.1934 4.94893 34.3066 8.77896 33.0294L12.4125 31.8185C13.0782 33.6593 13.9029 35.4484 14.8695 37.1479C14.8711 37.1509 14.8727 37.1538 14.8743 37.1566C14.8743 37.1567 14.8744 37.1567 14.8744 37.1568C15.5806 38.3989 16.3754 39.6126 17.2372 40.7649L18.2991 42.4697H1.76094ZM19.8537 41.7002L18.683 39.8208C18.6699 39.7997 18.6559 39.7792 18.6411 39.7594C17.9421 38.8269 17.29 37.8518 16.6961 36.8537L19.7745 33.5982L23.0183 36.8419C22.4204 37.8473 21.7661 38.8265 21.0665 39.7592C21.0242 39.8156 21.0842 39.7267 19.8537 41.7002ZM21.4083 42.4697L22.4702 40.765C23.3357 39.6083 24.1362 38.3848 24.8495 37.1282C24.8538 37.1206 24.8579 37.1128 24.8622 37.1052C24.8627 37.1042 24.8632 37.1034 24.8637 37.1024C25.818 35.4192 26.6341 33.6456 27.2949 31.8185L30.9284 33.0294C34.7585 34.3066 37.6044 38.1934 37.9465 42.4697H21.4083Z" fill="#767B87"/>
</svg>
