<svg width="15" height="15" fill="none" xmlns="http://www.w3.org/2000/svg"><path d="M14.962 4.41c-.035-.797-.164-1.345-.349-1.82a3.661 3.661 0 00-.867-1.33 3.693 3.693 0 00-1.328-.864c-.478-.185-1.023-.314-1.82-.35C9.795.01 9.54 0 7.503 0S5.21.009 4.41.044c-.797.035-1.345.164-1.82.349a3.66 3.66 0 00-1.33.867 3.68 3.68 0 00-.865 1.327C.21 3.065.081 3.61.045 4.407.01 5.21 0 5.465 0 7.501c0 2.037.009 2.292.044 3.092.035.797.164 1.345.349 1.82a3.7 3.7 0 00.867 1.33c.375.38.83.677 1.328.864.478.185 1.023.314 1.82.349.8.035 1.055.044 3.092.044s2.292-.009 3.092-.044c.797-.035 1.345-.164 1.82-.349a3.837 3.837 0 002.195-2.194c.185-.478.314-1.023.349-1.82.035-.8.044-1.055.044-3.092 0-2.036-.003-2.291-.038-3.091zm-1.351 6.124c-.033.733-.155 1.128-.258 1.392a2.489 2.489 0 01-1.425 1.424c-.263.103-.662.226-1.392.258-.791.035-1.028.044-3.03.044s-2.242-.009-3.03-.044c-.733-.032-1.129-.155-1.393-.258a2.309 2.309 0 01-.861-.56 2.331 2.331 0 01-.56-.86c-.103-.265-.226-.663-.258-1.393-.035-.79-.044-1.028-.044-3.03 0-2.001.009-2.241.044-3.03.032-.732.155-1.128.258-1.391.12-.326.31-.622.563-.862a2.33 2.33 0 01.861-.56c.264-.102.663-.225 1.392-.257.792-.036 1.03-.044 3.03-.044 2.006 0 2.243.008 3.031.044.733.032 1.129.155 1.392.257.326.12.622.311.862.56.25.243.44.536.56.862.103.263.226.662.258 1.391.035.792.044 1.029.044 3.03 0 2.002-.009 2.236-.044 3.027z" fill="#838383"/><path d="M7.5 4a3.75 3.75 0 000 7.5 3.75 3.75 0 000-7.5zm0 6.182a2.433 2.433 0 110-4.865 2.433 2.433 0 010 4.865zm4.75-7.057a1.125 1.125 0 11-2.25 0 1.125 1.125 0 012.25 0z" fill="#838383"/></svg>