<svg width="83" height="85" fill="none" xmlns="http://www.w3.org/2000/svg"><path d="M43.898 59.131h1.513v1.513h-1.513v-1.513zm-13.613 0h1.513v1.513h-1.513v-1.513z" fill="#fff"/><path d="M4.691 53.721c-6.255-6.361-6.255-16.674 0-23.035L30.174 4.77a15.829 15.829 0 0122.652 0l25.483 25.915c6.255 6.36 6.255 16.674 0 23.035L52.826 79.636a15.83 15.83 0 01-22.652 0L4.691 53.721z" fill="#313246"/><path d="M63.212 39.442a2.27 2.27 0 00-2.824-1.524l-20.29 6.07a.758.758 0 00-.3.174l-2.466 2.316a.756.756 0 00.388 1.297l3.332.582c.116.02.234.013.347-.02l16.463-4.926.071 1.557-5.231 1.565.434 1.45 5.796-1.735a.756.756 0 00.54-.759l-.116-2.525 2.332-.698a2.27 2.27 0 001.524-2.824zm-22.076 7.394l-1.666-.291 1.233-1.158 3.452-1.033.434 1.45-3.453 1.032zm4.902-1.466l-.434-1.45 12.115-3.625.072 1.558-11.753 3.517zm15.666-4.919a.753.753 0 01-.45.366l-1.97.59-.07-1.558 1.607-.482a.757.757 0 01.883 1.084z" fill="#fff"/><path d="M47.68 50.054H34.82V38.71a.757.757 0 00-.756-.757H20.45a.756.756 0 00-.756.757v24.203a.756.756 0 00.756.757h27.23a.756.756 0 00.756-.757V50.81a.756.756 0 00-.757-.756zm-8.32 1.513h3.025v3.025h-3.026v-3.025zM25.744 39.465h3.025v3.025h-3.025v-3.025zm-4.538 0h3.025v3.782a.756.756 0 00.756.756h4.539a.756.756 0 00.756-.756v-3.782h3.026v10.59H21.207v-10.59zm4.538 12.102h3.025v3.025h-3.025v-3.025zm-4.538 0h3.025v3.782a.757.757 0 00.756.756h4.539a.756.756 0 00.756-.756v-3.782h3.026v10.589H21.207v-10.59zm25.716 10.589H34.82v-10.59h3.026v3.783a.756.756 0 00.756.756h4.538a.757.757 0 00.757-.756v-3.782h3.025v10.589z" fill="#fff"/><path d="M30.285 47.03h1.513v1.512h-1.513V47.03zm1.513-22.691a1.514 1.514 0 011.513-1.513h4.538v1.513h-3.782a.757.757 0 00-.756.756V36.44h1.512V25.851h18.153v12.102h1.513V25.095a.757.757 0 00-.757-.756H49.95v-1.513h4.539A1.514 1.514 0 0156 24.339v12.858h1.513V24.339a3.029 3.029 0 00-3.025-3.026h-7.352l.522-2.085a.755.755 0 00-.734-.94h-6.05a.756.756 0 00-.735.94l.522 2.085H33.31a3.029 3.029 0 00-3.026 3.026V36.44h1.513v-12.1zm7.564-1.513h2.268a.756.756 0 00.734-.94l-.521-2.085h4.113l-.521 2.085a.755.755 0 00.734.94h2.269v1.513H39.36v-1.513zM56 55.35a1.514 1.514 0 01-1.512 1.512H49.95v1.513h4.538a3.029 3.029 0 003.026-3.025v-6.808H56v6.808z" fill="#fff"/><path d="M54.488 54.594v-5.295h-1.513v4.538H49.95v1.513h3.782a.757.757 0 00.756-.756zM40.873 28.121a.756.756 0 00-.756-.756H37.09a.756.756 0 00-.756.756v3.026a.756.756 0 00.756.756h3.026a.756.756 0 00.756-.756V28.12zm-1.512 2.27h-1.513v-1.513h1.513v1.512zm.756 3.781H37.09a.756.756 0 00-.756.756v3.025a.756.756 0 00.756.757h3.026a.756.756 0 00.756-.757v-3.025a.756.756 0 00-.756-.756zm-.756 3.025h-1.513v-1.513h1.513v1.513zm3.024-9.832h1.513v1.513h-1.513v-1.513zm0 3.025h9.076v1.512h-9.076V30.39zm3.028-3.025h6.051v1.513h-6.05v-1.513zm-3.028 6.807h1.513v1.512h-1.513v-1.512zm0 3.025h9.076v1.512h-9.076v-1.513zm3.028-3.025h6.051v1.512h-6.05v-1.512z" fill="#fff"/></svg>