<svg width="83" height="85" fill="none" xmlns="http://www.w3.org/2000/svg"><path d="M4.691 53.721c-6.255-6.361-6.255-16.674 0-23.035L30.174 4.77a15.829 15.829 0 0122.652 0l25.483 25.915c6.255 6.36 6.255 16.674 0 23.035L52.826 79.636a15.83 15.83 0 01-22.652 0L4.691 53.721z" fill="#313246"/><path d="M65.144 54.139h-.146a2.36 2.36 0 00.146-.795v-9.53a2.385 2.385 0 00-2.383-2.382h-4.91c.088-.25.146-.515.146-.794v-9.53a2.385 2.385 0 00-2.383-2.382H49.19l-4.972-9.53h1.072v-7.942h-4.765v7.942h1.047l-5.179 9.53h-6.192a2.385 2.385 0 00-2.382 2.382v9.53c0 .28.057.545.146.794h-4.911a2.385 2.385 0 00-2.382 2.383v9.53c0 .279.057.544.146.794h-.146a2.385 2.385 0 00-2.383 2.382v1.588a2.385 2.385 0 002.383 2.383h44.472a2.385 2.385 0 002.382-2.383v-1.588a2.385 2.385 0 00-2.382-2.383zm-1.588-10.325v9.53a.794.794 0 01-.794.794h-.313l-3.315-6.353h1.245V43.02h2.383c.438 0 .794.356.794.794zm-27.002 9.53v-9.53c0-.438.356-.794.795-.794h2.382v4.765h6.353V43.02h2.383c.438 0 .794.356.794.794v9.53a.794.794 0 01-.794.794H37.349a.794.794 0 01-.794-.794zm11.913-22.57l1.417 2.717h-1.417v-2.717zm2.246 4.305l3.315 6.353h-9.532a.794.794 0 01-.794-.794v-9.53c0-.437.356-.794.794-.794h2.383v4.765h3.834zm7.593 11.118l-1.658-3.177h2.143v3.177h-.485zm-13.81-3.177v3.177h-3.177V43.02h3.177zm6.353 10.324v-9.53c0-.438.356-.794.794-.794h3.213l5.801 11.118h-9.014a.794.794 0 01-.794-.794zm4.765-23.03c.439 0 .794.357.794.794v9.53a.784.784 0 01-.608.757l-5.781-11.081h5.595zm-13.5-17.471h1.588v4.765h-1.588v-4.765zm.78 7.249l4.505 8.634h-2.903c-.612 0-1.166.239-1.588.62a2.363 2.363 0 00-1.589-.62h-3.118l4.692-8.634zm-8.722 10.222h3.177v3.177h-3.177v-3.177zm-4.765 10.324v-9.53c0-.437.356-.794.794-.794h2.383v4.765h6.353v-4.765h2.382c.439 0 .795.357.795.794v9.53a.794.794 0 01-.795.794H30.202a.794.794 0 01-.795-.794zm-2.382 2.382H30.2v3.177h-3.176V43.02zM22.26 53.344v-9.53c0-.438.356-.794.794-.794h2.382v4.765h6.354V43.02h2.382c.438 0 .794.356.794.794v9.53a.794.794 0 01-.794.794H23.054a.794.794 0 01-.794-.794zm-2.383 4.765v-1.588c0-.438.356-.794.795-.794h40.501v3.176H20.671a.794.794 0 01-.794-.794zm46.061 0a.794.794 0 01-.794.794H62.76v-3.176h2.383c.438 0 .794.356.794.794v1.588z" fill="#fff"/></svg>