<svg width="83" height="85" fill="none" xmlns="http://www.w3.org/2000/svg"><path d="M4.691 53.721c-6.255-6.361-6.255-16.674 0-23.035L30.174 4.77a15.829 15.829 0 0122.652 0l25.483 25.915c6.255 6.36 6.255 16.674 0 23.035L52.826 79.636a15.83 15.83 0 01-22.652 0L4.691 53.721z" fill="#313246"/><path d="M42.203 47.762a13.22 13.22 0 10-13.22-13.22 13.232 13.232 0 0013.22 13.22zm0-24.937A11.72 11.72 0 1130.48 34.547a11.733 11.733 0 0111.722-11.722z" fill="#fff"/><path d="M37.747 36.546l-1.653 4.958a.749.749 0 001.126.86l4.981-3.321 4.981 3.32a.748.748 0 001.126-.859l-1.653-4.958 3.271-3.27a.749.749 0 00-.53-1.278H44.54l-1.628-4.885a.748.748 0 00-1.42 0l-1.628 4.885h-4.858a.748.748 0 00-.529 1.278l3.27 3.27zm2.657-3.05a.749.749 0 00.71-.514l1.087-3.265 1.089 3.267a.749.749 0 00.71.514h3.591l-2.32 2.32a.749.749 0 00-.18.765L46.2 39.91l-3.584-2.39a.75.75 0 00-.83 0l-3.581 2.387 1.108-3.327a.748.748 0 00-.18-.766l-2.32-2.32 3.591.001z" fill="#fff"/><path d="M60.414 61.792l-6.942-14.105a2.382 2.382 0 001.92-2.332v-1.412a.878.878 0 01.543-.813l1.305-.542a2.377 2.377 0 001.286-3.107l-.536-1.3a.878.878 0 01.19-.96l.995-.994a2.382 2.382 0 000-3.363l-1-1a.88.88 0 01-.19-.959l.54-1.306a2.376 2.376 0 00-1.288-3.106l-1.3-.538a.878.878 0 01-.544-.813v-1.407a2.38 2.38 0 00-2.378-2.378H51.6a.877.877 0 01-.813-.543l-.54-1.306a2.378 2.378 0 00-3.11-1.283l-1.297.536a.88.88 0 01-.96-.19l-.995-.994a2.38 2.38 0 00-3.362 0l-1 .999a.877.877 0 01-.96.19l-1.306-.541a2.379 2.379 0 00-3.106 1.288l-.538 1.3a.878.878 0 01-.812.544h-1.407a2.38 2.38 0 00-2.378 2.378v1.412a.878.878 0 01-.543.813l-1.306.542a2.377 2.377 0 00-1.283 3.107l.538 1.299a.878.878 0 01-.19.96l-.995.993a2.381 2.381 0 000 3.363l1 1a.877.877 0 01.19.96l-.54 1.305a2.378 2.378 0 001.288 3.107l1.296.54a.878.878 0 01.544.812v1.406a2.382 2.382 0 001.92 2.332l-6.942 14.105a.749.749 0 00.912 1.04l6.674-2.272 2.271 6.674a.748.748 0 00.66.506h.049a.748.748 0 00.672-.418l6.973-14.164 6.973 14.166a.749.749 0 00.672.417h.048a.75.75 0 00.66-.506l2.271-6.673 6.674 2.27a.749.749 0 00.913-1.039h-.001zm-29.9-16.437v-1.406a2.37 2.37 0 00-1.47-2.197l-1.298-.538a.88.88 0 01-.477-1.15l.54-1.304a2.372 2.372 0 00-.516-2.591l-.999-1.003a.88.88 0 010-1.245l.994-.995a2.37 2.37 0 00.513-2.592l-.536-1.296a.88.88 0 01.476-1.151l1.306-.541a2.372 2.372 0 001.466-2.197v-1.412a.882.882 0 01.881-.88H32.8a2.37 2.37 0 002.197-1.47l.538-1.298a.88.88 0 011.15-.479l1.306.54a2.372 2.372 0 002.59-.513l1-1a.903.903 0 011.246 0l.994.994a2.37 2.37 0 002.592.515l1.298-.538a.878.878 0 011.15.476l.542 1.305a2.371 2.371 0 002.197 1.467h1.414a.882.882 0 01.88.881v1.406a2.37 2.37 0 001.469 2.194l1.3.539a.879.879 0 01.478 1.15l-.543 1.306a2.373 2.373 0 00.516 2.59l1 1a.881.881 0 010 1.246l-.994.993a2.37 2.37 0 00-.514 2.593l.538 1.298a.88.88 0 01-.476 1.151l-1.305.541a2.372 2.372 0 00-1.467 2.197v1.412a.882.882 0 01-.88.88h-1.409a2.37 2.37 0 00-2.197 1.469l-.537 1.3a.883.883 0 01-1.15.477l-1.307-.538a2.37 2.37 0 00-2.59.514l-1 1a.903.903 0 01-1.245 0l-.994-.995a2.371 2.371 0 00-2.592-.513l-1.299.538a.881.881 0 01-1.15-.476l-.542-1.308a2.37 2.37 0 00-2.196-1.468h-1.412a.882.882 0 01-.883-.878zm4.172 19.685l-1.93-5.67a.749.749 0 00-.95-.468l-5.67 1.93 6.447-13.1h.225a.879.879 0 01.813.544l.54 1.307a2.378 2.378 0 003.107 1.283l1.3-.537a.88.88 0 01.96.19l.994.994c.179.175.385.319.61.428L34.686 65.04zm17.913-6.14a.746.746 0 00-.95.468l-1.93 5.67-6.446-13.097c.225-.109.431-.253.61-.427l1-1a.877.877 0 01.96-.191l1.305.54a2.378 2.378 0 003.107-1.288l.537-1.298a.877.877 0 01.813-.544h.218l6.447 13.099-5.67-1.931z" fill="#fff"/></svg>