<svg width="83" height="85" fill="none" xmlns="http://www.w3.org/2000/svg"><path d="M24.652 51.538h-.009a.825.825 0 00-.824.829c0 .458.375.829.833.829a.829.829 0 100-1.658zm7.09 0h-.009a.825.825 0 00-.824.829c0 .458.376.829.833.829a.829.829 0 100-1.658zm29.236 0h-.009a.825.825 0 00-.824.829c0 .458.375.829.833.829a.829.829 0 000-1.658z" fill="#fff"/><path d="M4.691 53.721c-6.255-6.361-6.255-16.674 0-23.035L30.174 4.77a15.829 15.829 0 0122.652 0l25.483 25.915c6.255 6.36 6.255 16.674 0 23.035L52.826 79.636a15.83 15.83 0 01-22.652 0L4.691 53.721z" fill="#313246"/><path d="M69.898 41.515l-1.114-1.114-2.246-6.737a.83.83 0 00-.25-1.619h-8.032v-3.601c0-.946-.77-1.715-1.715-1.715H15.783c-.946 0-1.715.77-1.715 1.715v19.493c0 .946.769 1.715 1.715 1.715h.943v1.829c0 .945.769 1.715 1.715 1.715h1.909a4.37 4.37 0 007.838 1.728 4.37 4.37 0 007.837-1.728h20.652a4.38 4.38 0 004.294 3.544 4.378 4.378 0 004.373-4.373l-.002-.057h3.603c.946 0 1.715-.77 1.715-1.715v-7.24c0-.695-.27-1.349-.762-1.84zM20.35 51.538h-1.91a.057.057 0 01-.056-.057v-1.829h2.834a4.355 4.355 0 00-.868 1.886zm4.293 3.544a2.718 2.718 0 01-2.715-2.715 2.718 2.718 0 012.698-2.715h.034a2.718 2.718 0 012.698 2.715 2.719 2.719 0 01-2.715 2.715zm7.088 0a2.718 2.718 0 01-2.715-2.715 2.718 2.718 0 012.698-2.715h.034a2.718 2.718 0 012.699 2.715 2.718 2.718 0 01-2.716 2.715zm24.947-3.544H36.025a4.356 4.356 0 00-.869-1.886h16.068a.829.829 0 100-1.658H15.783a.057.057 0 01-.057-.057V28.444c0-.031.025-.057.056-.057h40.759c.031 0 .057.026.057.057v19.55h-1.83a.829.829 0 100 1.658h2.778a4.354 4.354 0 00-.868 1.886zm10.526-10.633h-5.347a.057.057 0 01-.057-.057v-3.601h4.185l1.22 3.658zm-6.233 14.177a2.718 2.718 0 01-2.715-2.715 2.718 2.718 0 012.698-2.715h.023a2.718 2.718 0 012.71 2.715 2.719 2.719 0 01-2.716 2.715zm8.031-4.487a.057.057 0 01-.057.057h-3.951a4.38 4.38 0 00-4.023-2.658h-2.715V33.76c0-.032.025-.057.057-.057h6.49l.63 1.886H60.97a.829.829 0 00-.83.829v4.43c0 .946.77 1.715 1.716 1.715h6.745l.124.124a.937.937 0 01.276.667v1.982h-.943a.829.829 0 100 1.658h.943v3.601z" fill="#fff"/><path d="M53.882 44.45H18.44a.829.829 0 100 1.658h35.442a.829.829 0 000-1.658z" fill="#fff"/></svg>