<svg width="83" height="85" viewBox="0 0 83 85" fill="none" xmlns="http://www.w3.org/2000/svg">
<path d="M24.6523 51.5378H24.6433C24.1855 51.5378 23.8188 51.909 23.8188 52.3668C23.8188 52.8247 24.1944 53.1958 24.6523 53.1958C25.1101 53.1958 25.4813 52.8247 25.4813 52.3668C25.4813 51.909 25.1101 51.5378 24.6523 51.5378Z" fill="white"/>
<path d="M31.7423 51.5378H31.7334C31.2756 51.5378 30.9089 51.909 30.9089 52.3668C30.9089 52.8247 31.2845 53.1958 31.7423 53.1958C32.2001 53.1958 32.5713 52.8247 32.5713 52.3668C32.5713 51.909 32.2001 51.5378 31.7423 51.5378Z" fill="white"/>
<path d="M60.9783 51.5378H60.9694C60.5116 51.5378 60.1448 51.909 60.1448 52.3668C60.1448 52.8247 60.5204 53.1958 60.9783 53.1958C61.4361 53.1958 61.8072 52.8247 61.8072 52.3668C61.8072 51.909 61.4361 51.5378 60.9783 51.5378Z" fill="white"/>
<path d="M4.69128 53.7211C-1.56376 47.36 -1.56376 37.0467 4.69128 30.6857L30.1742 4.7708C36.4293 -1.59027 46.5707 -1.59026 52.8258 4.7708L78.3087 30.6857C84.5638 37.0467 84.5638 47.36 78.3087 53.7211L52.8258 79.636C46.5707 85.997 36.4293 85.997 30.1742 79.636L4.69128 53.7211Z" fill="#313246"/>
<path d="M69.8984 41.5151L68.7837 40.4005L66.5383 33.6639C66.8733 33.5575 67.1161 33.2441 67.1161 32.874C67.1161 32.4161 66.745 32.045 66.2871 32.045H58.2557V28.444C58.2557 27.4983 57.4864 26.729 56.5407 26.729H15.7825C14.8368 26.729 14.0675 27.4984 14.0675 28.444V47.9369C14.0675 48.8826 14.8368 49.6519 15.7825 49.6519H16.7256V51.4806C16.7256 52.4263 17.4949 53.1956 18.4406 53.1956H20.3496C20.7383 55.2117 22.5151 56.7397 24.6429 56.7397C26.1 56.7397 27.392 56.0228 28.1871 54.9239C28.9822 56.0228 30.2743 56.7397 31.7313 56.7397C33.8592 56.7397 35.6361 55.2117 36.0246 53.1956H56.6774C57.0661 55.2117 58.8429 56.7397 60.9707 56.7397C63.3821 56.7397 65.3439 54.7779 65.3439 52.3666C65.3439 52.3476 65.3426 52.3289 65.3424 52.31H68.9451C69.8908 52.31 70.6601 51.5407 70.6601 50.595V43.3542C70.6603 42.6595 70.3897 42.0064 69.8984 41.5151ZM20.3496 51.5377H18.4406C18.4091 51.5377 18.3836 51.5122 18.3836 51.4807V49.6521H21.2182C20.7893 50.1921 20.485 50.835 20.3496 51.5377ZM24.6429 55.082C23.1458 55.082 21.9278 53.8639 21.9278 52.3668C21.9278 50.8754 23.1367 49.6613 24.626 49.6521H24.6601C26.1494 49.6612 27.3583 50.8753 27.3583 52.3668C27.3582 53.8639 26.1401 55.082 24.6429 55.082ZM31.7314 55.082C30.2342 55.082 29.0162 53.8639 29.0162 52.3668C29.0162 50.8754 30.2251 49.6613 31.7144 49.6521H31.7484C33.2377 49.6612 34.4466 50.8753 34.4466 52.3668C34.4465 53.8639 33.2286 55.082 31.7314 55.082ZM56.6775 51.5377H36.0247C35.8893 50.835 35.585 50.192 35.156 49.6519H51.2243C51.6821 49.6519 52.0533 49.2808 52.0533 48.823C52.0533 48.3651 51.6821 47.994 51.2243 47.994H15.7825C15.751 47.994 15.7255 47.9684 15.7255 47.9369V28.444C15.7255 28.4125 15.751 28.387 15.7825 28.387H56.5406C56.5721 28.387 56.5976 28.4125 56.5976 28.444V47.9941H54.7689C54.311 47.9941 53.9399 48.3652 53.9399 48.8231C53.9399 49.2809 54.311 49.6521 54.7689 49.6521H57.5461C57.1171 50.1921 56.8129 50.835 56.6775 51.5377ZM67.2043 40.9053H61.8569C61.8254 40.9053 61.7998 40.8797 61.7998 40.8482V37.247H65.9849L67.2043 40.9053ZM60.9708 55.082C59.4737 55.082 58.2557 53.8639 58.2557 52.3668C58.2557 50.8754 59.4646 49.6613 60.9539 49.6521H60.971C60.9728 49.6521 60.9747 49.6518 60.9767 49.6517C62.4712 49.6548 63.6862 50.8716 63.6862 52.3667C63.686 53.8639 62.468 55.082 60.9708 55.082ZM69.0023 50.5952C69.0023 50.6267 68.9767 50.6523 68.9452 50.6523H64.9935C64.3253 49.0908 62.774 47.9937 60.9708 47.9937C60.9651 47.9937 60.9596 47.9942 60.9538 47.9942H58.2557V33.7603V33.7599C58.2557 33.7284 58.2813 33.7028 58.3128 33.7028H64.8036L65.4323 35.589H60.9708C60.513 35.589 60.1419 35.9601 60.1419 36.418V40.8482C60.1419 41.794 60.9112 42.5633 61.8569 42.5633H68.6018L68.726 42.6875C68.9041 42.8657 69.0023 43.1024 69.0023 43.3543V45.336H68.0592C67.6014 45.336 67.2302 45.7071 67.2302 46.165C67.2302 46.6228 67.6014 46.994 68.0592 46.994H69.0023V50.5952Z" fill="white"/>
<path d="M53.8822 44.45H18.4404C17.9826 44.45 17.6114 44.8211 17.6114 45.2789C17.6114 45.7368 17.9826 46.1079 18.4404 46.1079H53.8822C54.34 46.1079 54.7111 45.7368 54.7111 45.2789C54.7111 44.8211 54.34 44.45 53.8822 44.45Z" fill="white"/>
</svg>
