<svg width="83" height="85" viewBox="0 0 83 85" fill="none" xmlns="http://www.w3.org/2000/svg">
<path d="M43.8979 59.1313H45.4106V60.6441H43.8979V59.1313Z" fill="white"/>
<path d="M30.2852 59.1313H31.7979V60.6441H30.2852V59.1313Z" fill="white"/>
<path d="M4.69128 53.7211C-1.56376 47.36 -1.56376 37.0467 4.69128 30.6857L30.1742 4.7708C36.4293 -1.59027 46.5707 -1.59026 52.8258 4.7708L78.3087 30.6857C84.5638 37.0467 84.5638 47.36 78.3087 53.7211L52.8258 79.636C46.5707 85.997 36.4293 85.997 30.1742 79.636L4.69128 53.7211Z" fill="#313246"/>
<path d="M63.2118 39.4417C63.0393 38.8651 62.6448 38.3808 62.1152 38.095C61.5856 37.8093 60.9641 37.7457 60.3876 37.9182L40.0983 43.9886C39.9859 44.0223 39.8828 44.0817 39.7972 44.1621L37.3322 46.4784C37.2298 46.5746 37.1563 46.6974 37.1198 46.8331C37.0832 46.9687 37.0852 47.1118 37.1255 47.2464C37.1657 47.381 37.2426 47.5017 37.3476 47.595C37.4526 47.6883 37.5815 47.7506 37.7199 47.7748L41.0519 48.3568C41.1676 48.3769 41.2864 48.3699 41.3989 48.3363L57.8618 43.4106L57.933 44.9682L52.7019 46.5333L53.1355 47.9827L58.9324 46.2481C59.094 46.1998 59.2348 46.0989 59.3325 45.9613C59.4301 45.8238 59.479 45.6575 59.4713 45.489L59.3557 42.9643L61.6884 42.2664C62.2649 42.0939 62.7493 41.6994 63.035 41.1698C63.3207 40.6401 63.3843 40.0187 63.2118 39.4421V39.4417ZM41.1365 46.836L39.4704 46.545L40.7029 45.3867L44.1549 44.3541L44.5885 45.8033L41.1365 46.836ZM46.0377 45.3695L45.6041 43.9204L57.7193 40.2954L57.7906 41.8531L46.0377 45.3695ZM61.7038 40.451C61.6568 40.5386 61.593 40.616 61.5159 40.6788C61.4389 40.7415 61.3501 40.7884 61.2549 40.8166L59.2845 41.4061L59.2132 39.8485L60.8213 39.3674C60.9646 39.3245 61.1174 39.3251 61.2604 39.369C61.4034 39.413 61.5301 39.4984 61.6246 39.6144C61.719 39.7304 61.777 39.8718 61.7911 40.0207C61.8052 40.1696 61.7748 40.3194 61.7038 40.451Z" fill="white"/>
<path d="M47.6793 50.0541H34.8212V38.7088C34.8212 38.5082 34.7415 38.3158 34.5997 38.1739C34.4578 38.0321 34.2654 37.9524 34.0648 37.9524H20.4504C20.2498 37.9524 20.0574 38.0321 19.9156 38.1739C19.7737 38.3158 19.694 38.5082 19.694 38.7088V62.9122C19.694 63.1128 19.7737 63.3052 19.9156 63.447C20.0574 63.5889 20.2498 63.6686 20.4504 63.6686H47.6793C47.8799 63.6686 48.0723 63.5889 48.2141 63.447C48.3559 63.3052 48.4356 63.1128 48.4356 62.9122V50.8105C48.4356 50.6099 48.3559 50.4175 48.2141 50.2757C48.0723 50.1338 47.8799 50.0541 47.6793 50.0541ZM39.3593 51.5668H42.3848V54.5923H39.3593V51.5668ZM25.7449 39.4651H28.7703V42.4905H25.7449V39.4651ZM21.2067 39.4651H24.2322V43.2469C24.2322 43.4475 24.3119 43.6399 24.4537 43.7817C24.5956 43.9236 24.7879 44.0033 24.9885 44.0033H29.5267C29.7273 44.0033 29.9197 43.9236 30.0615 43.7817C30.2034 43.6399 30.283 43.4475 30.283 43.2469V39.4651H33.3085V50.0541H21.2067V39.4651ZM25.7449 51.5668H28.7703V54.5923H25.7449V51.5668ZM21.2067 51.5668H24.2322V55.3486C24.2322 55.5492 24.3119 55.7416 24.4537 55.8835C24.5956 56.0253 24.7879 56.105 24.9885 56.105H29.5267C29.7273 56.105 29.9197 56.0253 30.0615 55.8835C30.2034 55.7416 30.283 55.5492 30.283 55.3486V51.5668H33.3085V62.1558H21.2067V51.5668ZM46.9229 62.1558H34.8212V51.5668H37.8466V55.3486C37.8466 55.5492 37.9263 55.7416 38.0682 55.8835C38.21 56.0253 38.4024 56.105 38.603 56.105H43.1411C43.3417 56.105 43.5341 56.0253 43.676 55.8835C43.8178 55.7416 43.8975 55.5492 43.8975 55.3486V51.5668H46.9229V62.1558Z" fill="white"/>
<path d="M30.2852 47.0295H31.7979V48.5423H30.2852V47.0295Z" fill="white"/>
<path d="M31.7979 24.3387C31.7983 23.9377 31.9579 23.5532 32.2415 23.2696C32.525 22.986 32.9095 22.8265 33.3106 22.826H37.8487V24.3387H34.0669C33.8663 24.3387 33.674 24.4184 33.5321 24.5602C33.3903 24.7021 33.3106 24.8945 33.3106 25.0951V36.4404H34.8233V25.8514H52.9759V37.9531H54.4886V25.0951C54.4886 24.8945 54.4089 24.7021 54.2671 24.5602C54.1252 24.4184 53.9328 24.3387 53.7323 24.3387H49.9505V22.826H54.4886C54.8897 22.8265 55.2742 22.986 55.5577 23.2696C55.8413 23.5532 56.0009 23.9377 56.0013 24.3387V37.1968H57.514V24.3387C57.5131 23.5366 57.1941 22.7676 56.6269 22.2004C56.0597 21.6332 55.2907 21.3142 54.4886 21.3133H47.1374L47.6588 19.2276C47.6867 19.1161 47.6888 18.9997 47.6649 18.8873C47.6411 18.7748 47.5919 18.6693 47.5212 18.5787C47.4504 18.4881 47.36 18.4148 47.2567 18.3644C47.1534 18.314 47.04 18.2878 46.925 18.2878H40.8742C40.7592 18.2878 40.6458 18.314 40.5425 18.3644C40.4392 18.4148 40.3488 18.4881 40.278 18.5787C40.2073 18.6693 40.1581 18.7748 40.1343 18.8873C40.1104 18.9997 40.1125 19.1161 40.1404 19.2276L40.6618 21.3133H33.3106C32.5085 21.3142 31.7395 21.6332 31.1723 22.2004C30.6051 22.7676 30.2861 23.5366 30.2852 24.3387V36.4404H31.7979V24.3387ZM39.3615 22.826H41.6305C41.7455 22.826 41.8589 22.7998 41.9622 22.7494C42.0655 22.699 42.1559 22.6257 42.2267 22.5351C42.2974 22.4445 42.3466 22.339 42.3704 22.2266C42.3943 22.1141 42.3922 21.9977 42.3643 21.8862L41.8429 19.8006H45.9563L45.4349 21.8862C45.407 21.9977 45.4049 22.1141 45.4288 22.2266C45.4526 22.339 45.5018 22.4445 45.5725 22.5351C45.6433 22.6257 45.7337 22.699 45.837 22.7494C45.9403 22.7998 46.0537 22.826 46.1687 22.826H48.4377V24.3387H39.3615V22.826Z" fill="white"/>
<path d="M56.0008 55.3497C56.0003 55.7508 55.8408 56.1352 55.5572 56.4188C55.2736 56.7024 54.8892 56.8619 54.4881 56.8624H49.95V58.3751H54.4881C55.2902 58.3742 56.0592 58.0552 56.6264 57.488C57.1936 56.9208 57.5126 56.1518 57.5135 55.3497V48.5425H56.0008V55.3497Z" fill="white"/>
<path d="M54.4881 54.5936V49.2991H52.9754V53.8372H49.95V55.3499H53.7317C53.9323 55.3499 54.1247 55.2702 54.2666 55.1284C54.4084 54.9866 54.4881 54.7942 54.4881 54.5936Z" fill="white"/>
<path d="M40.8732 28.1211C40.8732 27.9205 40.7935 27.7281 40.6516 27.5863C40.5098 27.4444 40.3174 27.3647 40.1168 27.3647H37.0914C36.8908 27.3647 36.6984 27.4444 36.5566 27.5863C36.4147 27.7281 36.335 27.9205 36.335 28.1211V31.1465C36.335 31.3471 36.4147 31.5395 36.5566 31.6814C36.6984 31.8232 36.8908 31.9029 37.0914 31.9029H40.1168C40.3174 31.9029 40.5098 31.8232 40.6516 31.6814C40.7935 31.5395 40.8732 31.3471 40.8732 31.1465V28.1211ZM39.3605 30.3902H37.8477V28.8775H39.3605V30.3902Z" fill="white"/>
<path d="M40.1168 34.1716H37.0914C36.8908 34.1716 36.6984 34.2513 36.5566 34.3932C36.4147 34.535 36.335 34.7274 36.335 34.928V37.9534C36.335 38.154 36.4147 38.3464 36.5566 38.4882C36.6984 38.6301 36.8908 38.7098 37.0914 38.7098H40.1168C40.3174 38.7098 40.5098 38.6301 40.6516 38.4882C40.7935 38.3464 40.8732 38.154 40.8732 37.9534V34.928C40.8732 34.7274 40.7935 34.535 40.6516 34.3932C40.5098 34.2513 40.3174 34.1716 40.1168 34.1716ZM39.3605 37.1971H37.8477V35.6843H39.3605V37.1971Z" fill="white"/>
<path d="M42.3848 27.3647H43.8975V28.8775H42.3848V27.3647Z" fill="white"/>
<path d="M42.3848 30.3896H51.4611V31.9024H42.3848V30.3896Z" fill="white"/>
<path d="M45.4131 27.3647H51.464V28.8775H45.4131V27.3647Z" fill="white"/>
<path d="M42.3848 34.1716H43.8975V35.6843H42.3848V34.1716Z" fill="white"/>
<path d="M42.3848 37.1965H51.4611V38.7092H42.3848V37.1965Z" fill="white"/>
<path d="M45.4131 34.1716H51.464V35.6843H45.4131V34.1716Z" fill="white"/>
</svg>
