<svg width="83" height="85" viewBox="0 0 83 85" fill="none" xmlns="http://www.w3.org/2000/svg">
<path d="M4.69128 53.7211C-1.56376 47.36 -1.56376 37.0467 4.69128 30.6857L30.1742 4.7708C36.4293 -1.59027 46.5707 -1.59026 52.8258 4.7708L78.3087 30.6857C84.5638 37.0467 84.5638 47.36 78.3087 53.7211L52.8258 79.636C46.5707 85.997 36.4293 85.997 30.1742 79.636L4.69128 53.7211Z" fill="#313246"/>
<path d="M42.2027 47.7619C44.8172 47.7619 47.373 46.9866 49.5469 45.5341C51.7208 44.0815 53.4151 42.017 54.4157 39.6015C55.4162 37.186 55.678 34.528 55.1679 31.9638C54.6578 29.3995 53.3988 27.0441 51.5501 25.1953C49.7013 23.3466 47.3459 22.0876 44.7816 21.5775C42.2173 21.0674 39.5594 21.3292 37.1439 22.3297C34.7284 23.3303 32.6638 25.0246 31.2113 27.1985C29.7588 29.3724 28.9835 31.9282 28.9835 34.5427C28.987 38.0476 30.3808 41.4079 32.8592 43.8862C35.3375 46.3646 38.6978 47.7584 42.2027 47.7619ZM42.2027 22.8247C44.5211 22.8247 46.7874 23.5121 48.715 24.8002C50.6427 26.0882 52.1451 27.9189 53.0323 30.0608C53.9195 32.2027 54.1516 34.5596 53.6994 36.8334C53.2471 39.1072 52.1307 41.1959 50.4913 42.8352C48.852 44.4745 46.7633 45.5909 44.4895 46.0432C42.2157 46.4955 39.8588 46.2634 37.7169 45.3762C35.575 44.489 33.7443 42.9866 32.4563 41.0589C31.1683 39.1312 30.4808 36.8649 30.4808 34.5466C30.4837 31.4386 31.7197 28.4588 33.9173 26.2612C36.1149 24.0635 39.0947 22.8276 42.2027 22.8247Z" fill="white"/>
<path d="M37.7467 36.5463L36.0941 41.5042C36.0449 41.6521 36.043 41.8118 36.0889 41.9609C36.1348 42.11 36.2261 42.241 36.3501 42.3357C36.4741 42.4304 36.6245 42.4839 36.7804 42.4889C36.9363 42.4939 37.0899 42.4501 37.2197 42.3636L42.2011 39.0426L47.1825 42.3636C47.3122 42.4501 47.4658 42.4939 47.6217 42.4889C47.7776 42.4839 47.9281 42.4304 48.052 42.3357C48.176 42.241 48.2673 42.11 48.3132 41.9609C48.3591 41.8118 48.3573 41.6521 48.308 41.5042L46.6554 36.5463L49.926 33.2757C50.0308 33.1711 50.1022 33.0377 50.1312 32.8925C50.1602 32.7472 50.1454 32.5966 50.0887 32.4598C50.0321 32.323 49.9361 32.206 49.8129 32.1238C49.6897 32.0416 49.5449 31.9977 49.3968 31.9979H44.5395L42.9112 27.1127C42.8615 26.9637 42.7662 26.8341 42.6387 26.7423C42.5113 26.6505 42.3582 26.6011 42.2011 26.6011C42.044 26.6011 41.8909 26.6505 41.7634 26.7423C41.636 26.8341 41.5406 26.9637 41.4909 27.1127L39.8627 31.9979H35.0054C34.8573 31.9977 34.7124 32.0416 34.5893 32.1238C34.4661 32.206 34.3701 32.323 34.3134 32.4598C34.2567 32.5966 34.242 32.7472 34.2709 32.8925C34.2999 33.0377 34.3713 33.1711 34.4762 33.2757L37.7467 36.5463ZM40.4043 33.4952C40.5616 33.4951 40.7148 33.4454 40.8423 33.3533C40.9698 33.2611 41.065 33.1311 41.1144 32.9818L42.2011 29.7172L43.2898 32.9844C43.3393 33.1337 43.4345 33.2637 43.562 33.3558C43.6894 33.448 43.8427 33.4976 44 33.4978H47.5914L45.2714 35.8173C45.1732 35.9156 45.1043 36.0393 45.0724 36.1746C45.0405 36.3098 45.0469 36.4513 45.0909 36.5831L46.1998 39.9101L42.6165 37.5191C42.4935 37.4371 42.3489 37.3933 42.2011 37.3933C42.0532 37.3933 41.9087 37.4371 41.7857 37.5191L38.2045 39.9067L39.3134 36.5797C39.3574 36.4479 39.3638 36.3064 39.3319 36.1711C39.3 36.0359 39.2311 35.9122 39.1328 35.8139L36.8128 33.4943L40.4043 33.4952Z" fill="white"/>
<path d="M60.4138 61.7918L53.4718 47.687C54.0121 47.5802 54.4987 47.2894 54.8488 46.8641C55.1988 46.4388 55.3905 45.9054 55.3913 45.3546V43.9428C55.391 43.7687 55.4425 43.5984 55.5392 43.4537C55.636 43.3089 55.7736 43.1962 55.9347 43.13L57.2403 42.5884C57.5288 42.4688 57.7909 42.2936 58.0116 42.0727C58.2323 41.8518 58.4074 41.5897 58.5268 41.3011C58.6462 41.0126 58.7075 40.7033 58.7074 40.3911C58.7072 40.0788 58.6456 39.7696 58.5259 39.4812L57.9898 38.1803C57.9228 38.0195 57.9051 37.8424 57.939 37.6715C57.9729 37.5006 58.0569 37.3437 58.1802 37.2207L59.1749 36.2265C59.6199 35.78 59.8699 35.1754 59.8699 34.545C59.8699 33.9146 59.6199 33.3099 59.1749 32.8635L58.1755 31.8646C58.0521 31.7416 57.968 31.5847 57.9339 31.4139C57.8999 31.243 57.9174 31.0659 57.9843 30.905L58.525 29.5989C58.6444 29.3103 58.7058 29.0011 58.7056 28.6888C58.7055 28.3765 58.6438 28.0673 58.5242 27.7788C58.4045 27.4904 58.2292 27.2283 58.0083 27.0076C57.7873 26.7869 57.5251 26.6119 57.2365 26.4926L55.9364 25.9548C55.7754 25.8885 55.6377 25.7758 55.5409 25.6311C55.4441 25.4864 55.3925 25.3161 55.3926 25.142V23.7354C55.392 23.1049 55.1412 22.5005 54.6955 22.0547C54.2497 21.6088 53.6453 21.358 53.0149 21.3572H51.5997C51.4256 21.3575 51.2553 21.306 51.1106 21.2092C50.9659 21.1125 50.8532 20.9749 50.7869 20.8139L50.2466 19.5082C50.1268 19.2197 49.9514 18.9577 49.7303 18.737C49.5092 18.5164 49.2468 18.3415 48.9581 18.2223C48.6694 18.1031 48.36 18.042 48.0476 18.0424C47.7353 18.0428 47.4261 18.1048 47.1377 18.2248L45.8401 18.7613C45.6791 18.8281 45.5019 18.8457 45.331 18.8117C45.16 18.7777 45.0029 18.6938 44.8797 18.5705L43.8851 17.5767C43.4388 17.1314 42.8342 16.8813 42.2038 16.8813C41.5734 16.8813 40.9688 17.1314 40.5225 17.5767L39.5227 18.576C39.3998 18.6994 39.243 18.7835 39.0722 18.8174C38.9014 18.8514 38.7243 18.8338 38.5636 18.7668L37.2571 18.2248C36.6743 17.9839 36.0197 17.9843 35.4372 18.2258C34.8548 18.4674 34.392 18.9303 34.1508 19.5129L33.6134 20.8135C33.5472 20.9745 33.4345 21.1122 33.2898 21.2091C33.145 21.3059 32.9747 21.3575 32.8006 21.3572H31.394C30.7635 21.358 30.1591 21.6088 29.7134 22.0547C29.2676 22.5005 29.0169 23.1049 29.0162 23.7354V25.1471C29.0165 25.3212 28.965 25.4915 28.8683 25.6362C28.7715 25.781 28.6339 25.8937 28.4729 25.96L27.1672 26.5016C26.585 26.7435 26.1228 27.2067 25.8821 27.7894C25.6414 28.3721 25.642 29.0265 25.8838 29.6087L26.422 30.9076C26.489 31.0683 26.5067 31.2454 26.4728 31.4163C26.4389 31.5872 26.3549 31.7441 26.2316 31.8671L25.237 32.8613C24.7918 33.3077 24.5418 33.9124 24.5418 34.5428C24.5418 35.1733 24.7918 35.778 25.237 36.2243L26.2363 37.2237C26.3598 37.3466 26.4439 37.5035 26.4779 37.6744C26.512 37.8452 26.4945 38.0224 26.4276 38.1833L25.8868 39.4894C25.7674 39.7779 25.7061 40.0872 25.7062 40.3995C25.7064 40.7118 25.768 41.021 25.8877 41.3094C26.0073 41.5979 26.1826 41.8599 26.4036 42.0806C26.6245 42.3013 26.8868 42.4763 27.1754 42.5957L28.4712 43.1351C28.6322 43.2014 28.7698 43.3141 28.8667 43.4589C28.9635 43.6036 29.0151 43.7738 29.0149 43.948V45.3537C29.0158 45.9045 29.2075 46.438 29.5575 46.8633C29.9075 47.2886 30.3942 47.5794 30.9345 47.6861L23.9925 61.7909C23.9272 61.9238 23.9027 62.073 23.9222 62.2197C23.9416 62.3665 24.0042 62.5042 24.1019 62.6154C24.1996 62.7266 24.3281 62.8064 24.4711 62.8446C24.6141 62.8828 24.7653 62.8777 24.9054 62.8301L31.5792 60.5593L33.85 67.233C33.8977 67.3733 33.986 67.4962 34.1035 67.5862C34.2211 67.6763 34.3627 67.7295 34.5105 67.7391H34.5589C34.6987 67.7391 34.8357 67.6999 34.9544 67.626C35.0731 67.5522 35.1687 67.4466 35.2305 67.3212L42.2038 53.1569L49.177 67.3225C49.2388 67.4479 49.3345 67.5535 49.4532 67.6273C49.5719 67.7012 49.7089 67.7404 49.8487 67.7404H49.897C50.0448 67.7308 50.1864 67.6775 50.304 67.5875C50.4215 67.4974 50.5098 67.3745 50.5576 67.2343L52.8284 60.5605L59.5021 62.8313C59.6423 62.879 59.7934 62.8841 59.9365 62.8459C60.0795 62.8077 60.208 62.7279 60.3057 62.6167C60.4034 62.5055 60.4659 62.3678 60.4854 62.221C60.5049 62.0743 60.4804 61.925 60.4151 61.7922L60.4138 61.7918ZM30.5135 45.3546V43.9488C30.5145 43.4781 30.3754 43.0178 30.1138 42.6265C29.8523 42.2352 29.4802 41.9307 29.0449 41.7516L27.7461 41.2143C27.6392 41.1701 27.542 41.1053 27.4602 41.0236C27.3783 40.9419 27.3134 40.8448 27.2691 40.738C27.2248 40.6311 27.202 40.5166 27.202 40.4009C27.202 40.2853 27.2248 40.1707 27.2691 40.0639L27.8094 38.7595C27.99 38.3252 28.0375 37.847 27.9456 37.3856C27.8537 36.9243 27.6267 36.5007 27.2934 36.1687L26.2941 35.1659C26.1291 35.0007 26.0365 34.7768 26.0365 34.5433C26.0365 34.3098 26.1291 34.0858 26.2941 33.9206L27.2879 32.9264C27.6211 32.5941 27.8479 32.1701 27.9393 31.7085C28.0308 31.2469 27.9827 30.7685 27.8012 30.3343L27.2648 29.0376C27.2204 28.9308 27.1975 28.8163 27.1974 28.7006C27.1973 28.5849 27.22 28.4704 27.2643 28.3635C27.3085 28.2566 27.3734 28.1595 27.4551 28.0777C27.5369 27.9959 27.634 27.931 27.7409 27.8868L29.0466 27.3456C29.4813 27.1661 29.8529 26.8615 30.1141 26.4703C30.3753 26.0792 30.5144 25.6192 30.5135 25.1488V23.7371C30.5139 23.5036 30.6067 23.2799 30.7718 23.1148C30.9368 22.9496 31.1605 22.8567 31.394 22.8562H32.8002C33.2708 22.8572 33.7311 22.718 34.1224 22.4564C34.5137 22.1949 34.8183 21.8228 34.9974 21.3876L35.5347 20.0888C35.5788 19.9818 35.6435 19.8845 35.7252 19.8026C35.8069 19.7206 35.9039 19.6555 36.0107 19.6111C36.1175 19.5666 36.2321 19.5436 36.3478 19.5435C36.4635 19.5433 36.5781 19.5659 36.6851 19.61L37.9912 20.1499C38.4252 20.3307 38.9032 20.3784 39.3644 20.287C39.8256 20.1956 40.2493 19.9692 40.5815 19.6366L41.5809 18.6368C41.7488 18.4767 41.9718 18.3874 42.2038 18.3874C42.4357 18.3874 42.6588 18.4767 42.8267 18.6368L43.8205 19.6306C44.1525 19.9642 44.5763 20.1914 45.038 20.2832C45.4996 20.375 45.9781 20.3272 46.4125 20.1461L47.7114 19.6075C47.8182 19.5631 47.9327 19.5402 48.0484 19.5402C48.164 19.5401 48.2785 19.5629 48.3854 19.6072C48.4923 19.6514 48.5893 19.7163 48.6711 19.7982C48.7528 19.88 48.8176 19.9771 48.8617 20.084L49.4033 21.3893C49.5827 21.8241 49.8872 22.1957 50.2783 22.4569C50.6694 22.7181 51.1294 22.8571 51.5997 22.8562H53.0136C53.247 22.8567 53.4708 22.9496 53.6358 23.1148C53.8008 23.2799 53.8937 23.5036 53.894 23.7371V25.1429C53.8936 25.613 54.0331 26.0727 54.2946 26.4634C54.5561 26.8541 54.9279 27.1582 55.3627 27.3371L56.6637 27.8757C56.7706 27.9198 56.8677 27.9846 56.9496 28.0664C57.0314 28.1481 57.0963 28.2451 57.1406 28.352C57.1849 28.4588 57.2077 28.5734 57.2077 28.689C57.2077 28.8047 57.1849 28.9192 57.1407 29.0261L56.5982 30.3317C56.4176 30.7661 56.3702 31.2444 56.462 31.7058C56.5539 32.1672 56.7809 32.5909 57.1141 32.9229L58.1135 33.9223C58.2785 34.0875 58.3711 34.3115 58.3711 34.545C58.3711 34.7785 58.2785 35.0024 58.1135 35.1677L57.1197 36.1614C56.7864 36.4937 56.5597 36.9177 56.4682 37.3793C56.3768 37.8409 56.4249 38.3193 56.6063 38.7535L57.1445 40.0523C57.1888 40.1592 57.2117 40.2737 57.2117 40.3893C57.2118 40.505 57.1891 40.6195 57.1449 40.7264C57.1006 40.8333 57.0358 40.9304 56.954 41.0122C56.8723 41.094 56.7752 41.1589 56.6684 41.2031L55.3627 41.7443C54.9279 41.9238 54.5564 42.2285 54.2952 42.6196C54.034 43.0108 53.8949 43.4708 53.8957 43.9411V45.3529C53.8954 45.5863 53.8025 45.81 53.6375 45.9751C53.4725 46.1401 53.2487 46.233 53.0153 46.2333H51.6074C51.1368 46.2324 50.6765 46.3716 50.2852 46.6332C49.8939 46.8947 49.5893 47.2667 49.4102 47.702L48.8729 49.0012C48.8288 49.1082 48.7641 49.2055 48.6825 49.2875C48.6008 49.3695 48.5037 49.4345 48.3969 49.479C48.29 49.5234 48.1755 49.5463 48.0597 49.5464C47.944 49.5465 47.8294 49.5238 47.7225 49.4795L46.4164 48.9413C45.9824 48.7604 45.5044 48.7126 45.0431 48.8041C44.5819 48.8955 44.1583 49.1219 43.826 49.4547L42.8267 50.4545C42.6588 50.6145 42.4357 50.7038 42.2038 50.7038C41.9718 50.7038 41.7488 50.6145 41.5809 50.4545L40.5871 49.4602C40.2548 49.1271 39.8308 48.9003 39.3692 48.8089C38.9076 48.7175 38.4292 48.7655 37.995 48.9469L36.6962 49.4855C36.5894 49.5298 36.4749 49.5526 36.3593 49.5527C36.2437 49.5527 36.1292 49.53 36.0223 49.4858C35.9155 49.4416 35.8184 49.3767 35.7367 49.295C35.6549 49.2132 35.5901 49.1162 35.5458 49.0093L35.0042 47.7007C34.8249 47.2658 34.5204 46.8941 34.1293 46.6329C33.7382 46.3716 33.2782 46.2325 32.8079 46.2333H31.3961C31.1626 46.2335 30.9386 46.1411 30.7731 45.9764C30.6077 45.8117 30.5143 45.5881 30.5135 45.3546ZM34.6859 65.0397L32.7565 59.3691C32.7249 59.276 32.6752 59.19 32.6104 59.1161C32.5455 59.0421 32.4667 58.9817 32.3784 58.9383C32.2902 58.8949 32.1942 58.8693 32.0961 58.863C31.9979 58.8566 31.8995 58.8697 31.8064 58.9015L26.1354 60.8313L32.5828 47.7323H32.8079C32.9819 47.7321 33.1522 47.7837 33.2969 47.8804C33.4416 47.9772 33.5543 48.1147 33.6207 48.2756L34.161 49.583C34.4031 50.1651 34.8663 50.6272 35.449 50.8679C36.0316 51.1085 36.6859 51.108 37.2682 50.8664L38.5674 50.3287C38.7284 50.2617 38.9057 50.244 39.0767 50.278C39.2477 50.312 39.4047 50.396 39.5279 50.5195L40.5217 51.5133C40.7009 51.6875 40.9068 51.832 41.1317 51.9411L34.6859 65.0397ZM52.5995 58.9015C52.5064 58.8697 52.408 58.8566 52.3098 58.863C52.2117 58.8693 52.1157 58.8949 52.0275 58.9383C51.9392 58.9817 51.8604 59.0421 51.7955 59.1161C51.7306 59.19 51.6809 59.276 51.6493 59.3691L49.7199 65.0397L43.2733 51.9424C43.4982 51.8333 43.7041 51.6888 43.8834 51.5146L44.8831 50.5152C45.0059 50.3917 45.1628 50.3075 45.3336 50.2735C45.5044 50.2394 45.6815 50.257 45.8423 50.324L47.1484 50.8647C47.7312 51.1057 48.386 51.1054 48.9686 50.8637C49.5512 50.6221 50.0139 50.159 50.2551 49.5762L50.7924 48.2778C50.8586 48.1166 50.9712 47.9788 51.116 47.8819C51.2607 47.785 51.4311 47.7334 51.6053 47.7336H51.8226L58.2701 60.8326L52.5995 58.9015Z" fill="white"/>
</svg>
