<svg width="83" height="85" viewBox="0 0 83 85" fill="none" xmlns="http://www.w3.org/2000/svg">
<path d="M4.69128 53.7211C-1.56376 47.36 -1.56376 37.0467 4.69128 30.6857L30.1742 4.7708C36.4293 -1.59027 46.5707 -1.59026 52.8258 4.7708L78.3087 30.6857C84.5638 37.0467 84.5638 47.36 78.3087 53.7211L52.8258 79.636C46.5707 85.997 36.4293 85.997 30.1742 79.636L4.69128 53.7211Z" fill="#313246"/>
<path d="M65.1439 54.1385H64.9978C65.0867 53.8891 65.1439 53.6239 65.1439 53.3443V43.8145C65.1439 42.501 64.075 41.4321 62.7615 41.4321H57.8504C57.9394 41.1827 57.9966 40.9175 57.9966 40.6379V31.1081C57.9966 29.7946 56.9276 28.7257 55.6141 28.7257H49.1902L44.2181 19.1959H45.2902V11.2544H40.5253V19.1959H41.5719L36.3933 28.7257H30.2013C28.8878 28.7257 27.8189 29.7946 27.8189 31.1081V40.6379C27.8189 40.9175 27.876 41.1827 27.965 41.4321H23.054C21.7404 41.4321 20.6715 42.501 20.6715 43.8145V53.3443C20.6715 53.6239 20.7287 53.8891 20.8176 54.1385H20.6715C19.358 54.1385 18.2891 55.2074 18.2891 56.5209V58.1092C18.2891 59.4228 19.358 60.4917 20.6715 60.4917H65.1439C66.4574 60.4917 67.5264 59.4228 67.5264 58.1092V56.5209C67.5264 55.2074 66.4574 54.1385 65.1439 54.1385ZM63.5556 43.8145V53.3443C63.5556 53.7827 63.1998 54.1385 62.7615 54.1385H62.4486L59.1338 47.7853H60.379V43.0204H62.7615C63.1998 43.0204 63.5556 43.3762 63.5556 43.8145ZM36.5545 53.3443V43.8145C36.5545 43.3762 36.9103 43.0204 37.3487 43.0204H39.7311V47.7853H46.0843V43.0204H48.4668C48.9051 43.0204 49.2609 43.3762 49.2609 43.8145V53.3443C49.2609 53.7827 48.9051 54.1385 48.4668 54.1385H37.3487C36.9103 54.1385 36.5545 53.7827 36.5545 53.3443ZM48.4668 30.7738L49.8843 33.4906H48.4668V30.7738ZM50.7134 35.0789L54.0282 41.4321H51.6434H48.4668H44.496C44.0576 41.4321 43.7019 41.0763 43.7019 40.6379V31.1081C43.7019 30.6706 44.0576 30.314 44.496 30.314H46.8785V35.0789H50.7134ZM58.3055 46.197L56.6481 43.0204H58.7907V46.197H58.3055ZM44.496 43.0204V46.197H41.3194V43.0204H44.496ZM50.8492 53.3443V43.8145C50.8492 43.3762 51.205 43.0204 51.6434 43.0204H54.8565L60.657 54.1385H51.6434C51.205 54.1385 50.8492 53.7827 50.8492 53.3443ZM55.6141 30.314C56.0525 30.314 56.4083 30.6706 56.4083 31.1081V40.6379C56.4083 41.0104 56.1462 41.309 55.7999 41.3948L50.0185 30.314H55.6141ZM42.1136 12.8427H43.7019V17.6076H42.1136V12.8427ZM42.8934 20.0917L47.3986 28.7257H44.496C43.8837 28.7257 43.3302 28.9647 42.9077 29.3451C42.4852 28.9639 41.9317 28.7257 41.3194 28.7257H38.2008L42.8934 20.0917ZM34.1721 30.314H37.3487V33.4906H34.1721V30.314ZM29.4072 40.6379V31.1081C29.4072 30.6706 29.7629 30.314 30.2013 30.314H32.5838V35.0789H38.937V30.314H41.3194C41.7578 30.314 42.1136 30.6706 42.1136 31.1081V40.6379C42.1136 41.0763 41.7578 41.4321 41.3194 41.4321H37.3487H34.1721H30.2013C29.7629 41.4321 29.4072 41.0763 29.4072 40.6379ZM27.0247 43.0204H30.2013V46.197H27.0247V43.0204ZM22.2598 53.3443V43.8145C22.2598 43.3762 22.6156 43.0204 23.054 43.0204H25.4364V47.7853H31.7896V43.0204H34.1721C34.6104 43.0204 34.9662 43.3762 34.9662 43.8145V53.3443C34.9662 53.7827 34.6104 54.1385 34.1721 54.1385H23.054C22.6156 54.1385 22.2598 53.7827 22.2598 53.3443ZM19.8774 58.1092V56.5209C19.8774 56.0826 20.2331 55.7268 20.6715 55.7268H23.054H34.1721H37.3487H48.4668H51.6434H61.1732V58.9034H20.6715C20.2331 58.9034 19.8774 58.5476 19.8774 58.1092ZM65.9381 58.1092C65.9381 58.5476 65.5823 58.9034 65.1439 58.9034H62.7615V55.7268H65.1439C65.5823 55.7268 65.9381 56.0826 65.9381 56.5209V58.1092Z" fill="white"/>
</svg>
