<svg width="14" height="18" viewBox="0 0 14 18" fill="none" xmlns="http://www.w3.org/2000/svg">
<path d="M7 0C3.14018 0 0 2.92437 0 6.51889C0 10.9798 6.26431 17.5287 6.53102 17.8053C6.78154 18.0651 7.21892 18.0647 7.46898 17.8053C7.73569 17.5287 14 10.9798 14 6.51889C13.9999 2.92437 10.8598 0 7 0ZM7 9.79873C5.05803 9.79873 3.47816 8.3274 3.47816 6.51889C3.47816 4.71038 5.05807 3.23909 7 3.23909C8.94193 3.23909 10.5218 4.71042 10.5218 6.51893C10.5218 8.32744 8.94193 9.79873 7 9.79873Z" fill="#C7C7C7"/>
</svg>
