<svg width="44" height="47" viewBox="0 0 44 47" fill="none" xmlns="http://www.w3.org/2000/svg">
<path d="M19.692 5.62256C19.5069 5.29777 19.0936 5.18442 18.7689 5.36954C18.761 5.37396 18.5728 5.48154 18.2735 5.67784C17.9609 5.8828 17.8737 6.30237 18.0787 6.6149C18.2838 6.92761 18.7033 7.01472 19.0158 6.80967C19.2737 6.6406 19.4348 6.54799 19.4393 6.54547C19.7636 6.36026 19.8769 5.94718 19.692 5.62256Z" fill="white"/>
<path d="M25.3064 37.4184C25.0787 37.6857 24.8384 37.9559 24.5921 38.2213C24.3378 38.4954 24.3539 38.9236 24.6279 39.1778C24.9012 39.4314 25.3296 39.4166 25.5844 39.142C25.8436 38.8625 26.0968 38.578 26.3368 38.2962C26.5791 38.0116 26.545 37.5845 26.2604 37.3421C25.976 37.0997 25.5488 37.1339 25.3064 37.4184Z" fill="white"/>
<path d="M28.7617 33.2838C28.4245 33.1225 28.0205 33.265 27.8591 33.6022C27.7128 33.9081 27.5477 34.2212 27.3687 34.5327C27.1824 34.8567 27.294 35.2704 27.6181 35.4567C27.9415 35.6428 28.3554 35.532 28.5422 35.2073C28.7382 34.8665 28.9191 34.523 29.0802 34.1864C29.2414 33.8492 29.099 33.4451 28.7617 33.2838Z" fill="white"/>
<path d="M30.1539 30.4353C30.1711 30.2174 30.1799 29.9981 30.1799 29.7836C30.1799 29.5999 30.1735 29.4148 30.1608 29.2333C30.1347 28.8605 29.8103 28.5791 29.4384 28.6055C29.0655 28.6317 28.7844 28.9551 28.8106 29.328C28.8211 29.478 28.8265 29.6312 28.8264 29.7835C28.8264 29.9626 28.8191 30.1459 28.8046 30.3284C28.775 30.7009 29.0531 31.027 29.4257 31.0566C29.7973 31.0862 30.1243 30.8086 30.1539 30.4353Z" fill="white"/>
<path d="M28.1433 24.531C27.8998 24.2473 27.4726 24.2146 27.1889 24.458C26.9052 24.7014 26.8725 25.1287 27.1159 25.4124C27.3422 25.6763 27.5489 25.9489 27.7299 26.2227C27.9361 26.5346 28.3561 26.6201 28.6678 26.4139C28.9796 26.2077 29.0652 25.7879 28.859 25.476C28.647 25.1555 28.4061 24.8375 28.1433 24.531Z" fill="white"/>
<path d="M25.2051 22.0361C24.8948 21.836 24.5661 21.6376 24.2278 21.4463C23.9024 21.2624 23.4894 21.377 23.3055 21.7024C23.1215 22.0279 23.2361 22.4408 23.5616 22.6247C23.8771 22.8031 24.1833 22.9878 24.4715 23.1737C24.7836 23.3749 25.2032 23.2878 25.407 22.9717C25.6097 22.6575 25.5193 22.2387 25.2051 22.0361Z" fill="white"/>
<path d="M19.9599 19.3011C19.6332 19.1192 19.2212 19.2368 19.0394 19.5636C18.8577 19.8902 18.9752 20.3023 19.3019 20.484C19.6202 20.661 19.9555 20.839 20.2985 21.0128C20.6297 21.1808 21.0381 21.0506 21.2081 20.7151C21.3771 20.3818 21.2438 19.9745 20.9104 19.8055C20.5829 19.6394 20.263 19.4697 19.9599 19.3011Z" fill="white"/>
<path d="M16.1522 18.3521C16.436 18.5941 16.8633 18.5612 17.1063 18.276C17.3488 17.9915 17.3147 17.5644 17.0302 17.3219C16.7565 17.0886 16.5015 16.8503 16.2725 16.614C16.0125 16.3457 15.5841 16.3387 15.3155 16.5988C15.047 16.8588 15.0402 17.2873 15.3003 17.5558C15.5591 17.823 15.8458 18.091 16.1522 18.3521Z" fill="white"/>
<path d="M13.89 12.1758C13.5174 12.167 13.2051 12.4602 13.1949 12.8338C13.1936 12.8821 13.1929 12.9304 13.193 12.9783C13.193 13.3486 13.2321 13.7216 13.3092 14.0868C13.3865 14.4538 13.7468 14.6863 14.1111 14.6093C14.4768 14.5321 14.7108 14.1732 14.6336 13.8074C14.5759 13.5339 14.5467 13.255 14.5467 12.9777C14.5467 12.942 14.5471 12.9064 14.5481 12.8709C14.5582 12.4972 14.2635 12.1861 13.89 12.1758Z" fill="white"/>
<path d="M14.7514 10.0144C15.0541 10.2336 15.4773 10.1659 15.6965 9.86308C15.8891 9.59716 16.1076 9.32836 16.3459 9.06443C16.5963 8.78688 16.5744 8.35902 16.297 8.10852C16.0193 7.85794 15.5914 7.88003 15.3411 8.15739C15.0704 8.4573 14.8211 8.76407 14.6001 9.06921C14.3809 9.372 14.4486 9.79509 14.7514 10.0144Z" fill="white"/>
<path d="M21.9778 40.6971C21.7278 40.9037 21.5791 41.017 21.5778 41.018C21.28 41.244 21.2218 41.6685 21.4478 41.9662C21.6745 42.265 22.099 42.3216 22.3961 42.0963C22.403 42.091 22.5663 41.9669 22.8405 41.7401C23.1285 41.5018 23.1689 41.0752 22.9306 40.7872C22.6926 40.4993 22.2659 40.4588 21.9778 40.6971Z" fill="white"/>
<path d="M24.6651 46.1677H37.8394C38.9699 46.1677 39.9983 45.4966 40.5231 44.4162C46.6525 31.796 45.2447 20.4304 31.727 16.2527C27.3753 14.9078 22.1417 12.7103 21.9211 9.87881C21.7447 7.61578 24.7491 4.95347 30.8509 1.96601C31.8128 1.49504 31.4836 0 30.4219 0C28.9874 0 27.0155 0 25.5153 0C24.6664 0 23.8425 0.192336 23.0667 0.571506C21.1776 1.49486 18.6845 2.81244 16.2743 4.38548C9.11339 8.40298 5.44694 12.2946 5.37687 15.9522C5.3289 18.4561 6.97489 20.7483 10.269 22.7653C13.2533 24.5924 14.7667 26.6419 14.7672 28.8566C14.7689 34.763 4.18391 41.2515 0.705545 43.3837C-0.548108 44.1522 -0.0205149 46.1677 1.41934 46.1677H21.5091C21.8827 46.1677 22.1854 45.8649 22.1854 45.4915C22.1854 45.118 21.8827 44.8152 21.5091 44.8152H6.56326C18.0808 37.2436 25.1451 27.7142 13.39 20.5161C6.06172 16.0291 9.11015 10.9182 16.2256 6.0441C18.8095 4.27719 21.6008 2.79351 23.6607 1.78666C24.25 1.49865 24.874 1.35257 25.5153 1.35257H27.3103C23.7273 3.28584 18.4723 6.7275 18.6893 10.7927C18.7726 12.3519 19.6559 13.8279 21.3147 15.1795C23.0676 16.608 25.7573 17.9477 29.3087 19.1614C35.4793 21.2701 38.8513 24.7648 39.3311 29.5483C39.3684 29.9199 39.6994 30.1911 40.0715 30.1538C40.4432 30.1165 40.7142 29.785 40.677 29.4134C40.1396 24.0564 36.4619 20.1765 29.7461 17.8814C23.5331 15.7582 20.1766 13.282 20.0398 10.7205C19.9891 9.77034 20.3644 8.87692 20.8918 8.08594C18.8717 13.0019 26.236 15.9712 31.3275 17.5447C36.4673 19.1333 39.8948 21.8312 41.5148 25.5638C44.2496 31.8653 41.305 39.7099 39.3064 43.8252C39.0098 44.4357 38.4477 44.8151 37.8393 44.8151H35.6494C37.9884 41.2635 40.1039 36.9261 40.6222 32.7196C40.668 32.3489 40.4045 32.0114 40.0338 31.9657C39.6635 31.9208 39.3256 32.1834 39.28 32.5541C39.0187 34.6732 37.9842 39.0579 34.0172 44.8151H24.6651C24.2915 44.8151 23.9888 45.1179 23.9888 45.4914C23.9888 45.8648 24.2916 46.1677 24.6651 46.1677ZM4.04252 44.8152H1.41943C1.41168 44.8152 1.40807 44.8144 1.40807 44.8144H1.4078C1.39319 44.8062 1.35577 44.7518 1.3537 44.6706C1.35135 44.5744 1.39725 44.5462 1.4124 44.5369C7.72674 40.6662 16.1213 34.8295 16.1197 28.8563C16.119 26.139 14.3881 23.7015 10.9752 21.6118C6.63089 18.9519 5.29437 15.8667 8.51754 11.95C6.60104 15.9118 8.65586 19.1045 12.3805 21.4804C12.6498 21.6521 12.7331 21.6971 13.0134 21.8758C24.0227 28.8931 15.133 37.9961 4.04252 44.8152Z" fill="white"/>
</svg>
