<svg width="45" height="45" viewBox="0 0 45 45" fill="none" xmlns="http://www.w3.org/2000/svg">
<path d="M4.74617 8.97477H9.11774C9.52013 8.97477 9.84634 8.64856 9.84634 8.24617C9.84634 7.84378 9.52013 7.51758 9.11774 7.51758H4.74617C4.34378 7.51758 4.01758 7.84378 4.01758 8.24617C4.01758 8.64856 4.34378 8.97477 4.74617 8.97477Z" fill="#767B87"/>
<path d="M12.7579 8.97477H19.3152C19.7176 8.97477 20.0438 8.64856 20.0438 8.24617C20.0438 7.84378 19.7176 7.51758 19.3152 7.51758H12.7579C12.3555 7.51758 12.0293 7.84378 12.0293 8.24617C12.0293 8.64856 12.3555 8.97477 12.7579 8.97477Z" fill="#767B87"/>
<path d="M4.74617 16.9894H28.0612C28.4636 16.9894 28.7898 16.6632 28.7898 16.2608C28.7898 15.8584 28.4636 15.5322 28.0612 15.5322H4.74617C4.34378 15.5322 4.01758 15.8584 4.01758 16.2608C4.01758 16.6632 4.34378 16.9894 4.74617 16.9894Z" fill="#767B87"/>
<path d="M4.74617 19.9035H14.9465C15.3489 19.9035 15.6751 19.5773 15.6751 19.1749C15.6751 18.7725 15.3489 18.4463 14.9465 18.4463H4.74617C4.34378 18.4463 4.01758 18.7725 4.01758 19.1749C4.01758 19.5773 4.34378 19.9035 4.74617 19.9035Z" fill="#767B87"/>
<path d="M4.74617 25.7326H14.9465C15.3489 25.7326 15.6751 25.4064 15.6751 25.004C15.6751 24.6016 15.3489 24.2754 14.9465 24.2754H4.74617C4.34378 24.2754 4.01758 24.6016 4.01758 25.004C4.01758 25.4064 4.34378 25.7326 4.74617 25.7326Z" fill="#767B87"/>
<path d="M4.74617 31.5617H14.9465C15.3489 31.5617 15.6751 31.2355 15.6751 30.8331C15.6751 30.4307 15.3489 30.1045 14.9465 30.1045H4.74617C4.34378 30.1045 4.01758 30.4307 4.01758 30.8331C4.01758 31.2355 4.34378 31.5617 4.74617 31.5617Z" fill="#767B87"/>
<path d="M4.74617 37.3898H14.9465C15.3489 37.3898 15.6751 37.0636 15.6751 36.6612C15.6751 36.2588 15.3489 35.9326 14.9465 35.9326H4.74617C4.34378 35.9326 4.01758 36.2588 4.01758 36.6612C4.01758 37.0636 4.34378 37.3898 4.74617 37.3898Z" fill="#767B87"/>
<path d="M43.6516 22.1839L35.3456 18.5971V3.14575C35.3456 1.93857 34.367 0.959961 33.1598 0.959961H5.47321C4.26604 0.959961 3.28743 1.93857 3.28743 3.14575V3.87434H2.55883C1.35166 3.87434 0.373047 4.85295 0.373047 6.06013V42.4899C0.373047 43.697 1.35166 44.6757 2.55883 44.6757H30.2454C30.8349 44.6743 31.3987 44.4344 31.8083 44.0104L32.4057 44.4352C32.8573 44.7558 33.4623 44.7558 33.9139 44.4352L40.9631 39.4174C42.9172 38.0305 44.0813 35.7853 44.0887 33.389V22.8528C44.0892 22.5627 43.9175 22.3 43.6516 22.1839ZM4.74462 3.14575C4.74462 2.74335 5.07082 2.41715 5.47321 2.41715H33.1598C33.5622 2.41715 33.8884 2.74335 33.8884 3.14575V17.9676L33.4513 17.7774C33.2671 17.698 33.0584 17.698 32.8742 17.7774L32.437 17.9676V13.3461C32.437 13.33 32.429 13.3147 32.4276 13.2987C32.424 13.2377 32.4122 13.1774 32.3926 13.1195C32.3875 13.1027 32.3882 13.0852 32.3817 13.0692C32.3751 13.0532 32.37 13.0532 32.3664 13.0444C32.3309 12.9652 32.2816 12.8929 32.2207 12.831L23.4775 4.08782C23.4156 4.02691 23.3433 3.97756 23.264 3.9421C23.2546 3.93773 23.248 3.93044 23.2393 3.9268C23.2305 3.92316 23.2057 3.92097 23.1897 3.91587C23.131 3.89631 23.07 3.88432 23.0083 3.88017C22.9901 3.88235 22.9755 3.87434 22.9595 3.87434H4.74462V3.14575ZM23.6881 6.36176L29.9438 12.6175H24.4167C24.0143 12.6175 23.6881 12.2913 23.6881 11.8889V6.36176ZM30.2454 43.2185H2.55883C2.15644 43.2185 1.83024 42.8923 1.83024 42.4899V6.06013C1.83024 5.65773 2.15644 5.33153 2.55883 5.33153H22.2309V11.8889C22.2309 13.0961 23.2095 14.0747 24.4167 14.0747H30.974V18.5971L28.6287 19.612C28.7293 19.4883 28.7855 19.3343 28.7882 19.1748C28.7882 18.7724 28.462 18.4462 28.0596 18.4462H17.8593C17.4569 18.4462 17.1307 18.7724 17.1307 19.1748C17.1307 19.5772 17.4569 19.9034 17.8593 19.9034H27.9496L24.5762 21.3606H4.74462C4.34222 21.3606 4.01602 21.6868 4.01602 22.0892C4.01602 22.4916 4.34222 22.8178 4.74462 22.8178H22.236C22.236 22.8295 22.2309 22.8404 22.2309 22.8528V24.275H17.8593C17.4569 24.275 17.1307 24.6012 17.1307 25.0036C17.1307 25.406 17.4569 25.7322 17.8593 25.7322H22.2309V27.1894H4.74462C4.34222 27.1894 4.01602 27.5156 4.01602 27.918C4.01602 28.3204 4.34222 28.6466 4.74462 28.6466H22.2309V30.1038H17.8593C17.4569 30.1038 17.1307 30.43 17.1307 30.8324C17.1307 31.2347 17.4569 31.5609 17.8593 31.5609H22.2309V33.0181H4.74462C4.34222 33.0181 4.01602 33.3443 4.01602 33.7467C4.01602 34.1491 4.34222 34.4753 4.74462 34.4753H22.322C22.3944 34.9724 22.518 35.4608 22.6906 35.9325H17.8593C17.4569 35.9325 17.1307 36.2587 17.1307 36.6611C17.1307 37.0635 17.4569 37.3897 17.8593 37.3897H23.4265C23.7708 37.9258 24.1824 38.4155 24.6513 38.8469H4.74462C4.34222 38.8469 4.01602 39.1731 4.01602 39.5755C4.01602 39.9779 4.34222 40.3041 4.74462 40.3041H26.6025L30.5718 43.1296C30.4718 43.185 30.3598 43.2155 30.2454 43.2185ZM42.6315 33.389C42.6245 35.3136 41.6886 37.1164 40.1186 38.2298L33.1598 43.1835L26.201 38.229C24.6313 37.1159 23.6954 35.3134 23.6881 33.389V23.3344L25.0068 22.7646L25.0207 22.7588L33.1598 19.2397L42.6315 23.3315V33.389Z" fill="#767B87"/>
<path d="M32.8676 20.9524L25.5817 24.1C25.3158 24.216 25.1441 24.4787 25.1445 24.7688V33.3895C25.1512 34.8426 25.8588 36.2031 27.0447 37.0427L32.7365 41.0944C32.9894 41.2745 33.3287 41.2745 33.5817 41.0944L39.2734 37.0427C40.4592 36.2029 41.1668 34.8425 41.1736 33.3895V24.7688C41.174 24.4787 41.0023 24.216 40.7365 24.1L33.4505 20.9524C33.2647 20.8713 33.0535 20.8713 32.8676 20.9524ZM39.7164 25.2511V33.3895C39.7111 34.3729 39.231 35.2932 38.4275 35.8602L33.1591 39.6066L27.8906 35.8558C27.0881 35.29 26.6081 34.3715 26.6017 33.3895V25.2475L33.1591 22.4154L39.7164 25.2511Z" fill="#767B87"/>
<path d="M29.2263 31.7071C29.0181 31.5509 28.7423 31.5177 28.5029 31.6199C28.2636 31.7222 28.0969 31.9444 28.0658 32.2028C28.0347 32.4612 28.1438 32.7166 28.352 32.8728L31.2664 35.0586C31.5812 35.2948 32.0267 35.2384 32.2726 34.9311L38.1013 27.6451C38.3528 27.3309 38.3019 26.8722 37.9877 26.6207C37.6734 26.3692 37.2148 26.4201 36.9633 26.7344L31.576 33.4695L29.2263 31.7071Z" fill="#767B87"/>
</svg>
