<svg width="42" height="43" viewBox="0 0 42 43" fill="none" xmlns="http://www.w3.org/2000/svg">
<path d="M12.4339 6.52759H13.9881V13.1589H12.4339V6.52759Z" fill="#767B87"/>
<path d="M12.4339 14.8169H13.9881V16.4747H12.4339V14.8169Z" fill="#767B87"/>
<path d="M20.7231 19.7905H22.2774V26.4219H20.7231V19.7905Z" fill="#767B87"/>
<path d="M35.5398 41.4458V0H5.80241V41.4458H0V43H41.4458V41.4458H35.5398ZM7.35663 1.55422H33.9855V41.4458H32.2241V3.31566H9.11807V31.3952H10.6723V4.86988H27.9957L18.2361 9.34837V36.8637L27.9957 41.4458H10.6723V33.053H9.11807V41.4458H7.35663V1.55422ZM30.6699 40.9508L19.7904 35.8737V10.3384L30.6699 5.26127V40.9508Z" fill="#767B87"/>
</svg>
