<svg width="15" height="14" viewBox="0 0 15 14" fill="none" xmlns="http://www.w3.org/2000/svg">
<path d="M11.24 9.85576C10.5664 9.68044 9.93236 9.40294 9.35949 9.03268C9.07963 8.84799 8.67707 8.84583 8.43952 8.98956L6.95932 9.60148C5.72393 8.46221 5.07011 7.34873 4.68532 5.72818L5.90534 4.75919C6.20204 4.5853 6.37592 4.26375 6.35862 3.91507C6.31459 3.23086 6.38098 2.54225 6.55638 1.86835C6.68311 1.38152 6.39013 0.882372 5.90332 0.755672L3.88275 0.229782C3.39594 0.103083 2.8968 0.396064 2.7701 0.88287C1.31778 6.46295 4.67592 12.1841 10.256 13.6364C10.7428 13.7631 11.2419 13.4701 11.3686 12.9833L11.8931 10.9684C12.0197 10.4816 11.7268 9.98245 11.24 9.85576Z" fill="#838383"/>
</svg>
