<svg width="14" height="14" viewBox="0 0 14 14" fill="none" xmlns="http://www.w3.org/2000/svg">
<path d="M7 0C3.14005 0 0 3.14005 0 7C0 10.86 3.14005 14 7 14C10.86 14 14 10.86 14 7C14 3.14005 10.86 0 7 0ZM10.3291 10.6207C10.2153 10.7345 10.066 10.7917 9.9167 10.7917C9.76738 10.7917 9.61795 10.7345 9.5043 10.6207L6.5876 7.7041C6.47791 7.59505 6.4167 7.44679 6.4167 7.2917V3.5C6.4167 3.17743 6.67796 2.9167 7 2.9167C7.32204 2.9167 7.5833 3.17743 7.5833 3.5V7.0502L10.3291 9.7959C10.5571 10.024 10.5571 10.3927 10.3291 10.6207Z" fill="#C7C7C7"/>
</svg>
