<svg width="16" height="17" viewBox="0 0 16 17" fill="none" xmlns="http://www.w3.org/2000/svg">
<path d="M12.5412 11.5258C11.7813 11.328 11.0661 11.015 10.4199 10.5973C10.1042 10.389 9.65012 10.3865 9.38216 10.5487L7.71246 11.2389C6.3189 9.95382 5.58137 8.69777 5.14732 6.86975L6.52354 5.77671C6.85823 5.58056 7.05437 5.21783 7.03485 4.82451C6.98518 4.0527 7.06007 3.27594 7.25792 2.51575C7.40089 1.9666 7.07039 1.40354 6.52126 1.26062L4.242 0.667404C3.69286 0.524483 3.12981 0.854974 2.98689 1.40411C1.34864 7.69859 5.13671 14.1522 11.4312 15.7905C11.9803 15.9334 12.5434 15.6029 12.6863 15.0538L13.2779 12.7809C13.4207 12.2317 13.0903 11.6687 12.5412 11.5258Z" fill="#C7C7C7"/>
</svg>
